<?xml version="1.0" encoding="UTF-8"?>
<svg id="Layer_2" data-name="Layer 2" xmlns="http://www.w3.org/2000/svg" xmlns:xlink="http://www.w3.org/1999/xlink" viewBox="0 0 1978.63 1259.25">
  <defs>
    <style>
      .cls-1 {
        clip-path: url(#clippath);
      }

      .cls-2 {
        fill: #010101;
      }

      .cls-3 {
        fill: #fff;
      }

      .cls-4 {
        fill: none;
        stroke: #000;
        stroke-miterlimit: 10;
      }
    </style>
    <clipPath id="clippath">
      <path class="cls-4" d="M125.87,244.78c-4.1,.07-9.53,.14-14.92-.63-9.51-1.36-18.71-3.82-27.58-7.62-13.8-5.91-26.16-13.87-36.83-24.46-7.7-7.63-14.33-16.08-19.6-25.5-5.63-10.08-9.76-20.78-12.15-32.16-2.04-9.7-3-19.47-2.56-29.33,.52-11.46,2.63-22.65,6.5-33.51,3.95-11.07,9.43-21.29,16.41-30.73,7.31-9.88,16.08-18.3,26.08-25.43,9.83-7,20.58-12.17,32.07-15.86,13.58-4.36,27.52-5.91,41.71-5.22,6.17,.3,12.29,1.26,18.33,2.62,17.26,3.88,32.88,11.24,46.72,22.24,16.21,12.87,28.19,28.93,35.89,48.11,3.17,7.9,5.47,16.11,6.75,24.52,1.18,7.8,1.69,15.64,1.28,23.58-.61,11.75-2.92,23.11-6.92,34.11-4.72,12.98-11.63,24.73-20.67,35.23-7.26,8.44-15.47,15.79-24.82,21.87-14.16,9.22-29.57,15.18-46.32,17.56-3.27,.47-6.61,.49-9.92,.6-2.71,.09-5.43,.02-9.47,.02Z"/>
    </clipPath>
  </defs>
  <g id="Layer_4" data-name="Layer 4">
    <g>
      <g>
        <g>
          <path class="cls-3" d="M125.63,256.84c-4.53,.07-10.53,.16-16.48-.69-10.51-1.5-20.67-4.22-30.46-8.41-15.24-6.53-28.89-15.32-40.69-27.02-8.5-8.43-15.83-17.77-21.65-28.17-6.22-11.14-10.78-22.96-13.42-35.52C.69,146.3-.38,135.51,.12,124.62c.57-12.66,2.9-25.02,7.18-37.01,4.36-12.22,10.42-23.52,18.13-33.94,8.08-10.92,17.76-20.22,28.81-28.09,10.85-7.74,22.73-13.44,35.42-17.52,15-4.82,30.39-6.53,46.07-5.76,6.82,.33,13.58,1.39,20.24,2.89,19.06,4.29,36.32,12.42,51.61,24.56,17.9,14.22,31.14,31.96,39.65,53.14,3.51,8.73,6.04,17.79,7.46,27.09,1.31,8.61,1.87,17.28,1.42,26.04-.67,12.97-3.23,25.52-7.65,37.68-5.22,14.34-12.85,27.32-22.83,38.91-8.02,9.32-17.09,17.44-27.42,24.16-15.64,10.18-32.66,16.76-51.16,19.4-3.61,.51-7.3,.54-10.95,.66-2.99,.1-5.99,.02-10.46,.02Z"/>
          <g>
            <g class="cls-1">
              <path d="M226.97,68.09c-1.47,.05-2.33-.58-3.3-.85-.88-.24-1.37-.04-1.43,.91-.02,.39-.03,.78-.03,1.17,0,5.53,0,11.07,0,16.6,0,2.34,.03,2.36,2.34,2.99,4.38,1.2,8.68,2.59,12.86,4.35,1.74,.74,3.31,3.44,3.06,5.29-.08,.56-.42,.87-.97,.71-.6-.17-1.17-.44-1.73-.71-8.97-4.27-18.43-6.24-28.37-6.2-6.73,.03-13.44,.13-19.99,1.96-3.24,.91-6.4,2.03-9.49,3.37-3.22,1.4-6.47,2.75-9.83,3.79-2.05,.63-2.12,.75-2.14,2.76-.03,4.29-.03,8.57,0,12.86,.01,1.66,.13,1.75,1.79,1.51,3.11-.45,6.08-1.44,9.01-2.52,3.37-1.25,6.68-2.65,10-4.01,5.2-2.13,10.61-3.17,16.21-3.32,3.12-.08,6.25-.08,9.37,.17,5.37,.43,10.38,2.15,15.28,4.27,4.01,1.74,8.07,3.36,12.3,4.54,2.26,.63,2.8,1.46,2.75,3.68-.04,1.54-.48,1.95-2.04,1.58-3.35-.79-6.59-1.93-9.77-3.26-2.88-1.21-5.75-2.45-8.66-3.58-1.64-.64-1.96-.4-1.97,1.33-.03,5.92-.04,11.85,0,17.77,.01,1.72,.24,2.05,1.97,2.37,6.14,1.13,11.76,3.68,17.41,6.16,1.95,.85,2.56,2.58,1.64,4.55-.35,.75-.93,.76-1.57,.52-1.1-.41-2.17-.87-3.26-1.3-2.76-1.09-5.51-2.2-8.29-3.25-1.9-.72-3.89-1.17-5.89-1.51-1.6-.27-1.88-.03-2.01,1.64-.02,.31-.02,.62-.02,.93,0,3.74-.02,7.48,0,11.22,.01,2.51,.09,2.5,2.34,3.39,4.14,1.63,8.27,3.31,12.39,4.99,.69,.28,1.68,.43,1.63,1.42-.06,1.16-.35,2.34-1.25,3.18-.53,.5-1.19,.18-1.77-.05-2.39-.96-4.78-1.94-7.17-2.89-1.45-.58-2.89-1.18-4.37-1.69-1.31-.45-1.64-.19-1.79,1.22-.03,.31-.02,.62-.03,.93,0,5.38-.01,10.76,0,16.13,0,2.48,.08,2.53,2.46,3.2,.98,.27,1.95,.56,2.93,.84,.58,.17,.95,.52,.93,1.17-.05,1.77-2.09,3.37-3.88,3.05-1.77-.31-3.54-.63-5.31-.9-10.32-1.53-20.56-1.17-30.68,1.45-2.73,.7-5.38,1.65-7.95,2.8-3.57,1.6-7.14,3.16-10.9,4.28-1.32,.39-1.91,1.07-1.88,2.49,.07,4.21,0,8.42,.04,12.63,.02,1.94,.36,2.2,2.23,1.85,4.56-.84,8.88-2.41,13.14-4.21,4.31-1.82,8.56-3.8,13.21-4.72,5.43-1.07,10.89-.76,16.36-.68,.53,0,1.18-.03,1.44,.56,.27,.62-.3,.98-.65,1.37-.52,.58-1.11,1.1-1.62,1.69-.72,.84-1.62,1.13-2.7,1.12-2.11,0-4.22,0-6.33,.09-2.12,.09-2.36,.38-2.41,2.55-.04,1.64,.03,3.28-.05,4.91-.08,1.66-2.29,4.33-3.78,4.64-.43,.09-.8-.1-.86-.56-.08-.61-.09-1.24-.12-1.86-.1-2.33-.23-4.67-.27-7-.02-1.07-.47-1.42-1.45-1.19-.61,.14-1.21,.31-1.79,.54-2.76,1.1-5.52,2.18-8.25,3.35-4.53,1.96-9.18,3.54-14.05,4.43-1.9,.35-2.06,.51-2.08,2.43-.03,4.29,0,8.57-.02,12.86-.01,2.27-1.55,3.71-3.8,3.65-.59-.02-.87-.39-.92-.87-.1-.93-.15-1.86-.15-2.79-.01-19.88-.01-39.75-.02-59.63,0-3.11,0-3.02-3.12-3-3.9,.02-7.81,.23-11.71-.15-1.53-.15-1.7,.03-1.79,1.64-.02,.39-.01,.78,0,1.17,.12,7.56-.07,15.11,.12,22.68,.09,3.8-.2,7.64-.08,11.45,.25,8.49-.21,16.98-.02,25.47,.05,2.1,.21,4.2,.3,6.3,.03,.77,.15,1.72-.77,2.01-1.09,.34-2.25,.76-3.43,.27-.47-.2-.61-.68-.72-1.14-.25-1-.23-2.01-.23-3.02,0-5.46,0-10.91-.02-16.37-.01-2.22-.2-2.43-2.23-2.85-5.15-1.06-10.07-2.8-14.88-4.91-2.5-1.09-5.05-2.1-7.62-3.02-2.58-.92-2.86-.7-2.86,1.98-.02,7.95-.01,15.9-.02,23.85,0,.94,.02,1.87-.06,2.8-.19,2.4-2.19,3.43-4.32,2.27-.67-.36-.72-.93-.69-1.59,.39-9.04,.09-18.08,.16-27.12,0-.7-.02-1.4-.05-2.1-.05-1.1-.69-1.69-1.73-1.91-.38-.08-.77-.13-1.16-.15-3.67-.17-7.35-.21-11.01,.06-2.39,.17-2.66,.5-2.67,2.85-.02,7.56,0,15.12-.01,22.68,0,2.94-.37,3.14-3.07,2.14-1.43-.53-1.82-1.44-1.81-2.86,.05-6.62,.03-13.25,.02-19.88,0-.7,0-1.41-.07-2.1-.08-.79-.6-1.07-1.33-.9-.53,.12-1.04,.33-1.55,.54-2.24,.91-4.52,1.76-6.71,2.78-5.07,2.36-10.39,3.83-15.88,4.8-.54,.1-1.09,.15-1.6,.33-.79,.27-1.32,1.5-2.43,.54-1.26-1.11-3.04-1.78-3.14-3.82-.04-.78-.05-1.56-.05-2.34,0-12.94,0-25.88,0-38.82q0-3.53-3.46-3.54c-3.28,0-6.55,.02-9.83-.32-2.91-.3-3.11-.04-3.12,2.83-.02,7.48,0,14.96-.02,22.44,0,.85-.02,1.72-.17,2.56-.16,.84-.76,1-1.31,.31-1.69-2.15-3.3-4.35-4.9-6.56-.36-.49-.41-1.1,.41-1.23,.86-.14,.89-.69,.89-1.36-.03-6-.02-12-.07-18-.02-1.85-.21-2.03-2.1-2.49-3.73-.91-7.35-2.13-10.91-3.54-1.94-.77-3.71-3.54-3.55-5.52,.04-.44,.25-.78,.74-.68,.53,.11,1.07,.25,1.56,.48,8.02,3.81,16.48,5.64,25.35,6.02,7.79,.34,15.45-.2,23-2.13,3.64-.93,7.1-2.41,10.55-3.88,2.59-1.1,5.18-2.2,7.86-3.05,1.7-.54,1.83-.65,1.84-2.48,.04-4.36,.04-8.73,0-13.09-.01-1.71-.26-1.89-1.98-1.52-5.06,1.09-9.89,2.88-14.62,4.96-4.01,1.77-8.07,3.45-12.44,4.04-10.85,1.46-21.5,1.14-31.66-3.63-4.17-1.96-8.53-3.47-12.96-4.79-1.95-.58-2.83-2.55-2.05-4.38,.21-.49,.56-.78,1.08-.72,.69,.09,1.38,.26,2.06,.41,5.08,1.13,9.7,3.44,14.44,5.46q3.81,1.62,3.82-2.42c0-5.07,.01-10.13,0-15.2,0-2.54-.05-2.62-2.43-3.16-6.07-1.37-11.68-3.93-17.35-6.36-1.47-.63-1.92-3.22-.77-4.33,.74-.71,1.59-.46,2.41-.12,2.02,.84,4.03,1.7,6.04,2.55,3.17,1.34,6.45,2.36,9.77,3.26,.45,.12,.91,.23,1.37,.28,.76,.07,1.23-.27,1.16-1.07-.41-4.67-.11-9.35-.18-14.02-.02-1.32-.62-1.92-1.79-2.37-4.15-1.6-8.27-3.28-12.4-4.95-2.16-.87-2.52-2.77-.92-4.53,.63-.69,1.31-.37,1.94-.13,2.91,1.13,5.81,2.3,8.71,3.45,1.02,.4,2.03,.82,3.06,1.18,.87,.3,1.36-.03,1.37-.97,0-.23,.01-.47,.01-.7,0-5.69,.02-11.38-.01-17.07,0-2.09-.13-2.2-2.09-2.76-.98-.28-1.98-.47-2.95-.77-1.43-.45-1.63-.93-1.03-2.22,1.12-2.41,1.51-2.56,4.17-2,12.19,2.58,24.35,2.51,36.46-.52,3.27-.82,6.35-2.17,9.44-3.5,2.8-1.2,5.54-2.55,8.51-3.29,1.23-.31,1.83-.98,1.82-2.31-.04-4.44,.03-8.89-.02-13.33-.02-1.66-.33-1.86-2.07-1.47-4.2,.95-8.29,2.23-12.23,4.01-5.21,2.35-10.48,4.5-16.21,5.26-5.13,.68-10.28,.66-15.42,.18-1.55-.15-1.66-.61-.76-1.94,1.34-1.97,3.04-2.98,5.52-2.77,1.86,.16,3.75,.04,5.62-.02,2.69-.08,2.79-.2,2.82-2.8,.02-1.87-.02-3.74,.02-5.61,.05-2.03,1.99-4.54,3.86-5.08,.44-.13,.79,.02,.86,.5,.07,.54,.09,1.09,.1,1.63,.02,2.65,.01,5.3,.03,7.95,.02,2.43,.17,2.57,2.58,1.86,1.5-.44,2.97-.97,4.42-1.55,4.5-1.79,8.86-3.91,13.51-5.31,1.8-.54,3.62-.97,5.44-1.39,1.76-.41,1.89-.51,1.9-2.34,.03-4.91,0-9.82,.01-14.73,0-2.29,.65-3.08,2.85-3.53,1.43-.29,1.87,0,2,1.43,.06,.62,.03,1.25,.03,1.87,0,20.5,0,41,0,61.5,0,3.56,.1,3.66,3.73,3.29,3.59-.36,7.17-.36,10.76-.04,1.78,.16,2.13-.07,2.11-1.87-.04-6.15,.27-12.31-.19-18.46-.06-.78-.11-1.56-.06-2.34,.43-7.01,.01-14.02,.08-21.02,.09-8.88,.12-17.76,.2-26.65,.02-2.01,2.18-3.48,4.01-2.78,.49,.19,.73,.59,.77,1.08,.07,.7,.09,1.4,.09,2.1,.01,6.55,0,13.09,.03,19.64,0,2.05,.19,2.31,2.18,2.61,5.94,.91,11.41,3.18,16.88,5.5,2.15,.92,4.34,1.76,6.56,2.52,1.62,.55,1.87,.31,1.96-1.44,.03-.54,.02-1.09,.02-1.64,0-8.57,0-17.15,.01-25.72,0-.7,0-1.4,0-2.1,.06-2.64,.81-3.18,3.32-2.48,.95,.27,1.51,.76,1.49,1.79-.01,.62,.01,1.25,.01,1.87,0,9.2,.01,18.39,.02,27.59,0,.62-.02,1.25,.03,1.87,.11,1.48,.47,1.85,1.98,2.11,.31,.05,.62,.08,.93,.09,3.67,.18,7.35,.2,11.01-.03,2.38-.14,2.67-.49,2.68-2.83,.01-8.34,.05-16.68-.01-25.02-.03-4.09,.9-3.02,3.51-2.3,.97,.27,1.4,.9,1.39,1.89-.01,.62,.02,1.25,.02,1.87,0,7.17,0,14.34,0,21.51,0,.55-.02,1.09,0,1.64,.08,1.68,.24,1.82,1.8,1.35,2.32-.71,4.56-1.63,6.78-2.6,4.73-2.06,9.45-4.13,14.57-5.08,1-.18,2-.37,3-.53,1.2-.18,1.79-.84,1.73-2.07-.02-.31-.01-.63,.04-.93,.15-1.01,.57-1.28,1.4-.77,2.05,1.28,3.48,2.73,3.45,5.57-.15,14.11-.08,28.21-.08,42.32,0,3.68-.33,4.06,3.8,3.6,2.7-.3,5.46-.23,8.19,.12,.85,.11,1.72,.14,2.57,.12,1.49-.04,1.73-.29,1.83-1.8,.05-.7,.02-1.4,.02-2.1,0-8.42,0-16.84,.02-25.25,0-.88-.38-2.16,.67-2.49,1.01-.32,1.5,.93,2.07,1.61,.85,1,1.78,1.98,2.14,3.32,.18,.65,.76,.96,1.18,1.41,1.52,1.66,2.8,3.49,3.82,5.78Zm-85.4,140.11h0c0-2.02,.02-4.05,0-6.07-.03-2.29-.04-2.32-2.11-3.01-2.74-.92-5.43-1.96-8.07-3.14-4.78-2.14-9.68-3.91-14.87-4.85-7.65-1.39-15.32-1.7-23.08-1.01-6.61,.58-12.89,2.24-18.98,4.77-3.89,1.61-7.72,3.38-11.8,4.49-2.7,.73-2.92,.99-2.96,3.89-.05,3.74-.03,7.48-.01,11.21,.01,2.21,.29,2.43,2.48,2.01,4.84-.93,9.54-2.35,14.08-4.29,4.66-1.99,9.28-4.06,14.32-5.05,5.04-.99,10.1-.71,15.17-.73,3.07-.01,6.06,.5,9.03,1.21,3.98,.94,7.66,2.66,11.37,4.29,4.38,1.92,8.9,3.38,13.59,4.3,1.6,.31,1.79,.16,1.82-1.47,.05-2.18,.01-4.36,.01-6.54Zm-27.59-57.69h0c0,2.1,.03,4.21-.01,6.31-.03,1.26,.39,2.03,1.7,2.38,4.31,1.18,8.36,3.04,12.47,4.74,3.18,1.31,6.39,2.52,9.77,3.23,8.32,1.74,16.71,2.13,25.16,1.31,5.06-.49,10.03-1.45,14.83-3.24,5.55-2.08,10.85-4.83,16.64-6.28,1.16-.29,1.3-1.16,1.29-2.17-.03-3.58,0-7.17-.03-10.75,0-.93-.18-1.86-.3-2.78-.12-.86-.68-1.19-1.49-1.1-.54,.06-1.07,.2-1.61,.31-5.62,1.15-10.97,3.12-16.15,5.52-10.33,4.78-21.11,5.14-32.11,3.54-4.61-.67-8.81-2.63-13.04-4.45-4.81-2.07-9.74-3.81-14.9-4.8-1.73-.33-2.14-.06-2.19,1.69-.06,2.18-.01,4.36-.01,6.54Zm-54.3-39.58c0,2.1-.02,4.21,0,6.31,.02,2.1,.14,2.16,2.11,1.81,5.96-1.05,11.6-3.1,17.13-5.48,3.8-1.64,7.62-3.29,11.73-3.96,11.25-1.82,22.24-1.29,32.78,3.61,5.1,2.37,10.39,4.3,15.92,5.45,1.81,.38,2.18,.16,2.2-1.6,.05-4.28-.01-8.57,.02-12.85,.01-1.39-.58-2.15-1.91-2.52-2.56-.72-4.99-1.8-7.43-2.85-4.45-1.91-8.89-3.87-13.66-4.87-7.6-1.6-15.28-2.06-23.04-1.54-6.59,.44-12.99,1.64-19.14,4.13-4.99,2.02-9.83,4.44-15.12,5.65-1.23,.28-1.64,.99-1.62,2.17,.04,2.18,.01,4.36,.01,6.54ZM195.52,52.89s.02,0,.03,0c0-2.1,.03-4.21,0-6.31-.04-2.01-.21-2.16-2.2-1.78-5.32,1-10.46,2.63-15.32,4.98-11.12,5.39-22.74,6.19-34.73,4.06-4.51-.8-8.63-2.69-12.77-4.52-4.73-2.09-9.61-3.7-14.71-4.58-1.62-.28-1.79-.17-1.81,1.46-.04,4.36,.01,8.72-.01,13.08,0,1.27,.47,1.99,1.76,2.34,2.71,.75,5.36,1.72,7.9,2.92,7.49,3.53,15.3,5.72,23.57,6.44,10.64,.92,21.04,.16,31.17-3.41,5.3-1.87,10.23-4.68,15.72-6.03,1.11-.27,1.43-1.09,1.42-2.12,0-2.18,0-4.36,0-6.54Zm-32.45,58.62h0c0-10.91,0-21.82,0-32.73,0-2.54-.11-2.63-2.64-2.63-3.59,0-7.19,.01-10.78,0-3.2,0-3.22-.02-3.22,3.21,0,19.33,0,38.65,.04,57.98,0,2.57-.11,5.14,.24,7.7,.23,1.73,.32,1.85,1.91,2.06,4.21,.56,8.41,.47,12.62,0,1.23-.14,1.86-.67,1.83-1.93-.01-.55,.01-1.09,.01-1.64,0-10.68,0-21.35,0-32.03Zm-70.63,38.06c0,6.31,0,12.63,0,18.94,0,4.52,0,9.04,0,13.56,0,2.93,.04,2.92,3.07,2.89,3.44-.04,6.88-.03,10.31-.04,.55,0,1.09,0,1.64,.01,1.07,.03,1.58-.49,1.59-1.55,0-.62,.02-1.25,.02-1.87,0-12.15,0-24.3-.02-36.45,0-1.56-.28-3.12-.19-4.66,.44-7.94,.1-15.89,.19-23.84,.03-2.24-.12-2.41-2.28-2.72-4.29-.61-8.57-.23-12.84,.29-1.02,.12-1.47,.78-1.47,1.78,0,.62-.02,1.25-.02,1.87,0,10.6,0,21.2,0,31.8Zm124.63,.27c0-10.52,0-21.04,0-31.56,0-.7,.03-1.4-.02-2.1-.11-1.54-.43-1.92-1.94-2.1-3.49-.43-7.01-.76-10.52-.44-4.37,.4-3.93,.41-3.93,4.05-.01,21.27,0,42.54,0,63.81,0,.47-.01,.94,.01,1.4,.1,1.75,.33,2.01,2.12,2,4.3-.01,8.59-.18,12.88,.2,.88,.08,1.34-.26,1.38-1.14,.02-.62,.02-1.25,.02-1.87,0-10.75,0-21.51,0-32.26ZM54.82,111.63c0-10.83,0-21.67,0-32.5,0-2.94-.04-2.96-3.05-2.97-3.2,0-6.41,0-9.61-.02-3.75-.03-3.76-.04-3.76,3.66,0,20.81,0,41.62,0,62.43,0,.78-.02,1.56,.02,2.34,.09,1.8,.39,2.23,2.18,2.39,3.5,.31,7,.7,10.52,.5,3.52-.2,3.7-.34,3.7-3.79,0-10.68,0-21.35,0-32.03Zm4.87,72.59h-.02c0,2.96-.02,5.92,0,8.88,.02,2.01,.14,2.12,1.97,1.54,1.64-.52,3.26-1.08,4.86-1.69,6.4-2.45,12.57-5.57,19.44-6.67,1.09-.17,1.62-.81,1.62-1.93-.01-6.23,0-12.46,0-18.69,0-.08-.01-.16-.02-.23-.04-.86-.53-1.08-1.26-.84-.96,.32-1.91,.68-2.84,1.07-7.13,3-14.29,5.87-21.95,7.27-1.65,.3-1.76,.45-1.78,2.17-.04,3.04-.01,6.07-.01,9.11Zm27.87-106.57s0,0-.01,0c0-3.04,.04-6.08-.02-9.12-.03-1.62-.33-1.82-1.84-1.24-2.62,1.01-5.22,2.09-7.83,3.14-5.15,2.07-10.32,4.05-15.87,4.81-1.7,.23-2.19,.71-2.23,2.7-.09,6-.09,12-.06,18,0,1.38,.41,1.65,1.79,1.26,1.58-.44,3.14-.95,4.65-1.58,6.5-2.69,12.97-5.45,19.89-6.9,1.14-.24,1.54-.86,1.53-1.96-.03-3.04,0-6.08,0-9.12Zm0,48.59h.02c0-3.03,.04-6.07-.02-9.1-.03-1.48-.32-1.7-1.71-1.2-2.05,.74-4.08,1.56-6.07,2.44-5.57,2.49-11.3,4.48-17.33,5.55-2.63,.47-2.7,.5-2.72,3.1-.05,5.68-.05,11.36-.02,17.04,.01,2.03,.42,2.3,2.43,1.72,2.78-.8,5.44-1.9,8.09-3.07,4.93-2.17,9.9-4.2,15.25-5.15,1.88-.33,2.04-.57,2.07-2.47,.04-2.96,0-5.91,0-8.87Zm80.42,57.28h0c0,3.04-.04,6.08,.02,9.12,.03,1.53,.44,1.82,1.9,1.38,1.27-.38,2.51-.87,3.74-1.37,5.87-2.35,11.64-4.97,17.88-6.25,1.28-.26,2.88-.09,3.75-1.06,.98-1.1,.21-2.69,.25-4.06,.14-4.98-.08-9.97,.29-14.95,.2-2.68-.16-2.88-2.75-1.92-2.2,.81-4.38,1.67-6.54,2.58-5.41,2.27-10.89,4.31-16.65,5.51-1.72,.36-1.85,.54-1.88,2.38-.04,2.88,0,5.77,0,8.65Zm-26.39,.34h-.01c0-3.04,.03-6.08-.01-9.12-.03-1.7-.23-1.96-1.75-2.25-6.03-1.15-11.71-3.32-17.32-5.71-2.23-.95-4.44-1.94-6.77-2.61-1.48-.43-1.68-.33-1.72,1.17-.06,2.26-.04,4.52-.04,6.78,0,3.82-.02,7.64,.03,11.46,.02,1.8,.17,1.99,1.67,2.29,5.78,1.13,11.29,3.09,16.68,5.41,2.29,.98,4.64,1.85,7,2.69,2.08,.73,2.22,.6,2.24-1.68,.02-2.81,0-5.61,0-8.42Zm26.39-48.93c0,2.96-.03,5.92,.01,8.87,.03,1.77,.46,2.07,2.17,1.48,1.55-.53,3.05-1.19,4.56-1.83,5.89-2.5,11.76-5.04,18.14-6.09,2.61-.43,2.62-.5,2.67-3.13,.12-5.52-.26-11.05,.25-16.57,.04-.38,.01-.78-.06-1.16-.21-1.18-.58-1.46-1.77-1.12-1.42,.4-2.83,.88-4.2,1.46-6.54,2.75-13.01,5.71-20.08,6.92-1.4,.24-1.73,1.05-1.71,2.3,.04,2.96,.01,5.92,.01,8.87Zm-26.38-48.68h-.03c0-3.04-.01-6.08,0-9.11,0-1.2-.46-1.8-1.72-2.03-4.55-.83-8.86-2.46-13.17-4.1-3.35-1.28-6.57-2.89-10.03-3.92-2.62-.78-2.67-.79-2.69,1.84-.02,3.35,0,6.7,0,10.05,0,2.41-.02,4.83,.03,7.24,.04,1.87,.27,2.06,2.16,2.36,.85,.14,1.7,.26,2.53,.48,5.22,1.38,10.27,3.22,15.24,5.34,1.79,.77,3.61,1.49,5.45,2.13,1.84,.64,2.18,.39,2.21-1.63,.04-2.88,.01-5.76,.01-8.65Zm-.02,48.66c0-2.8,.02-5.6,0-8.4-.03-2.23-.11-2.32-2.25-2.8-5.27-1.19-10.38-2.84-15.31-5.04-2.63-1.18-5.27-2.37-8.06-3.13-1.66-.46-1.94-.24-1.95,1.48-.03,5.91-.03,11.83,0,17.74,.01,2.06,.14,2.17,2.21,2.54,4.86,.87,9.52,2.38,14.05,4.33,2.93,1.26,5.89,2.5,8.88,3.61,1.93,.72,2.39,.36,2.42-1.69,.05-2.88,.01-5.76,.02-8.64Zm26.4-49h0c0,3.19-.04,6.38,.02,9.57,.02,1.32,.35,1.55,1.59,1.13,1.85-.62,3.67-1.3,5.48-2.03,6.06-2.48,12.09-5.05,18.62-6.1,1.45-.23,1.79-.65,1.8-2.25,.05-5.99,.06-11.98,.03-17.97,0-1.69-.37-1.95-1.99-1.46-2.69,.81-5.28,1.88-7.87,2.99-5.1,2.18-10.26,4.16-15.73,5.19-1.84,.35-1.91,.46-1.93,2.29-.03,2.88,0,5.76,0,8.63Z"/>
            </g>
            <path class="cls-4" d="M125.87,244.78c-4.1,.07-9.53,.14-14.92-.63-9.51-1.36-18.71-3.82-27.58-7.62-13.8-5.91-26.16-13.87-36.83-24.46-7.7-7.63-14.33-16.08-19.6-25.5-5.63-10.08-9.76-20.78-12.15-32.16-2.04-9.7-3-19.47-2.56-29.33,.52-11.46,2.63-22.65,6.5-33.51,3.95-11.07,9.43-21.29,16.41-30.73,7.31-9.88,16.08-18.3,26.08-25.43,9.83-7,20.58-12.17,32.07-15.86,13.58-4.36,27.52-5.91,41.71-5.22,6.17,.3,12.29,1.26,18.33,2.62,17.26,3.88,32.88,11.24,46.72,22.24,16.21,12.87,28.19,28.93,35.89,48.11,3.17,7.9,5.47,16.11,6.75,24.52,1.18,7.8,1.69,15.64,1.28,23.58-.61,11.75-2.92,23.11-6.92,34.11-4.72,12.98-11.63,24.73-20.67,35.23-7.26,8.44-15.47,15.79-24.82,21.87-14.16,9.22-29.57,15.18-46.32,17.56-3.27,.47-6.61,.49-9.92,.6-2.71,.09-5.43,.02-9.47,.02Z"/>
          </g>
        </g>
        <g>
          <path d="M334.15,104.26v11.28h-31.89l-7.2-7.2V58.31h12.84v45.95h26.25Z"/>
          <path d="M383.78,58.31v50.04l-7.2,7.2h-29.85l-7.2-7.2V58.31h12.84v45.95h18.56V58.31h12.84Z"/>
          <path d="M425.32,98.21l13.66,17.33h-16.35l-13.33-17.33h-3.11v17.33h-12.84V58.31h37.04l7.2,7.2v25.51l-7.2,7.2h-5.07Zm-.57-11.28v-17.33h-18.56v17.33h18.56Z"/>
          <path d="M459.42,69.59v11.69h15.95v11.28h-15.95v11.69h26.25v11.28h-39.09V58.31h39.09v11.28h-26.25Z"/>
          <path d="M536.94,77.77l-12.18,9.16,12.18,9.16v19.46h-12.84v-13.82l-9.57-7.11-9.57,7.11v13.82h-12.84v-19.46l12.35-9.08-12.35-9.24v-19.46h12.84v13.82l9.81,7.36,9.32-6.87v-14.31h12.84v19.46Z"/>
          <path d="M624.84,58.31v57.24h-12.92v-23.22l-9.32,19.46h-12.76l-9.4-19.46v23.22h-12.84V58.31h12.84v5.48l15.78,34.1,15.7-34.1v-5.48h12.92Z"/>
          <path d="M647.49,69.59v11.69h15.95v11.28h-15.95v11.69h26.25v11.28h-39.09V58.31h39.09v11.28h-26.25Z"/>
          <path d="M708.81,78.26v-8.67h-15.94v3.92l28.86,21.1v13.74l-7.2,7.2h-27.31l-7.2-7.2v-16.27h12.84v12.18h15.94v-3.92l-28.78-21.1v-13.74l7.2-7.2h27.31l7.2,7.2v12.76h-12.92Z"/>
          <path d="M774.55,58.31v57.24h-12.84v-22.98h-18.56v22.98h-12.84V58.31h12.84v22.98h18.56v-22.98h12.84Z"/>
          <path d="M307.9,152.97v11.69h15.94v11.28h-15.94v22.98h-12.84v-50.04l7.2-7.2h31.89v11.28h-26.25Z"/>
          <path d="M383.87,148.88v50.04h-12.84v-11.61h-18.56v11.61h-12.84v-50.04l7.2-7.2h29.85l7.2,7.2Zm-12.84,27.07v-22.98h-18.56v22.98h18.56Z"/>
          <path d="M437.67,162.62l-7.2,7.2,7.2,7.2v14.72l-7.2,7.2h-37.04v-57.24h37.04l7.2,7.2v13.74Zm-31.4,1.47h18.56v-11.12h-18.56v11.12Zm18.56,23.55v-12.18h-18.56v12.18h18.56Z"/>
          <path d="M478.47,181.59l13.66,17.33h-16.35l-13.33-17.33h-3.11v17.33h-12.84v-57.24h37.04l7.2,7.2v25.51l-7.2,7.2h-5.07Zm-.57-11.28v-17.33h-18.56v17.33h18.56Z"/>
          <path d="M516.9,152.97v34.67h6.46v11.28h-25.76v-11.28h6.46v-34.67h-6.46v-11.28h25.76v11.28h-6.46Z"/>
          <path d="M561.96,160.9v-7.93h-18.56v34.67h18.56v-7.93h12.84v12.02l-7.2,7.2h-29.85l-7.2-7.2v-42.85l7.2-7.2h29.85l7.2,7.2v12.02h-12.84Z"/>
        </g>
      </g>
      <g>
        <g>
          <g>
            <path class="cls-3" d="M125.63,591.73c-4.53,.07-10.53,.16-16.48-.69-10.51-1.5-20.67-4.22-30.46-8.41-15.24-6.53-28.89-15.32-40.69-27.02-8.5-8.43-15.83-17.77-21.65-28.17-6.22-11.14-10.78-22.96-13.42-35.52-2.25-10.71-3.32-21.51-2.82-32.4,.57-12.66,2.9-25.02,7.18-37.01,4.36-12.22,10.42-23.52,18.13-33.94,8.08-10.92,17.76-20.22,28.81-28.09,10.85-7.74,22.73-13.44,35.42-17.52,15-4.82,30.39-6.53,46.07-5.76,6.82,.33,13.58,1.39,20.24,2.89,19.06,4.29,36.32,12.42,51.61,24.56,17.9,14.22,31.14,31.96,39.65,53.14,3.51,8.73,6.04,17.79,7.46,27.09,1.31,8.61,1.87,17.28,1.42,26.04-.67,12.97-3.23,25.52-7.65,37.68-5.22,14.34-12.85,27.32-22.83,38.91-8.02,9.32-17.09,17.44-27.42,24.16-15.64,10.18-32.66,16.76-51.16,19.4-3.61,.51-7.3,.54-10.95,.66-2.99,.1-5.99,.02-10.46,.02Z"/>
            <path class="cls-4" d="M125.87,579.67c-4.1,.07-9.53,.14-14.92-.63-9.51-1.36-18.71-3.82-27.58-7.62-13.8-5.91-26.16-13.87-36.83-24.46-7.7-7.63-14.33-16.08-19.6-25.5-5.63-10.08-9.76-20.78-12.15-32.16-2.04-9.7-3-19.47-2.56-29.33,.52-11.46,2.63-22.65,6.5-33.51,3.95-11.07,9.43-21.29,16.41-30.73,7.31-9.88,16.08-18.3,26.08-25.43,9.83-7,20.58-12.17,32.07-15.86,13.58-4.36,27.52-5.91,41.71-5.22,6.17,.3,12.29,1.26,18.33,2.62,17.26,3.88,32.88,11.24,46.72,22.24,16.21,12.87,28.19,28.93,35.89,48.11,3.17,7.9,5.47,16.11,6.75,24.52,1.18,7.8,1.69,15.64,1.28,23.58-.61,11.75-2.92,23.11-6.92,34.11-4.72,12.98-11.63,24.73-20.67,35.23-7.26,8.44-15.47,15.79-24.82,21.87-14.16,9.22-29.57,15.18-46.32,17.56-3.27,.47-6.61,.49-9.92,.6-2.71,.09-5.43,.02-9.47,.02Z"/>
          </g>
          <g>
            <path d="M339.47,463.31l-7.2,7.2,7.2,7.2v14.72l-7.2,7.2h-37.04v-57.24h37.04l7.2,7.2v13.74Zm-31.4,1.47h18.56v-11.12h-18.56v11.12Zm18.56,23.55v-12.18h-18.56v12.18h18.56Z"/>
            <path d="M380.27,482.28l13.66,17.33h-16.35l-13.33-17.33h-3.11v17.33h-12.84v-57.24h37.04l7.2,7.2v25.51l-7.2,7.2h-5.07Zm-.57-11.28v-17.33h-18.56v17.33h18.56Z"/>
            <path d="M414.36,453.66v11.69h15.95v11.28h-15.95v11.69h26.25v11.28h-39.09v-57.24h39.09v11.28h-26.25Z"/>
            <path d="M491.88,449.57v50.04h-12.84v-11.61h-18.56v11.61h-12.84v-50.04l7.2-7.2h29.85l7.2,7.2Zm-12.84,27.07v-22.98h-18.56v22.98h18.56Z"/>
            <path d="M547.16,442.38v11.28h-18.48v45.95h-12.84v-45.95h-18.56v-11.28h49.88Z"/>
            <path d="M597.03,442.38v57.24h-12.84v-22.98h-18.56v22.98h-12.84v-57.24h12.84v22.98h18.56v-22.98h12.84Z"/>
            <path d="M650.92,449.57v50.04h-12.84v-11.61h-18.56v11.61h-12.84v-50.04l7.2-7.2h29.85l7.2,7.2Zm-12.84,27.07v-22.98h-18.56v22.98h18.56Z"/>
            <path d="M704.72,463.31l-7.2,7.2,7.2,7.2v14.72l-7.2,7.2h-37.04v-57.24h37.04l7.2,7.2v13.74Zm-31.4,1.47h18.56v-11.12h-18.56v11.12Zm18.56,23.55v-12.18h-18.56v12.18h18.56Z"/>
            <path d="M752.48,488.33v11.28h-31.89l-7.2-7.2v-50.04h12.84v45.95h26.25Z"/>
            <path d="M770.95,453.66v11.69h15.95v11.28h-15.95v11.69h26.25v11.28h-39.09v-57.24h39.09v11.28h-26.25Z"/>
          </g>
        </g>
        <g>
          <path d="M195.89,501.05c1.02-3.43,1.62-6.14,4.96-6.28,3.56-.15,4.51,2.6,5.69,5.12,2.67,5.69,5.29,11.39,9.04,16.52,2.75,3.76,1.06,7.78-3.59,7.86-10.88,.19-21.8,.01-32.49-2.47-2.65-.62-4.36-2.55-3.69-5.47,.65-2.84,2.82-3.84,5.62-3.54,4.24,.45,8.42,1.61,12.81,1.25,.35-2.07-1.39-2.67-2.31-3.7-5.83-6.48-12.77-11.98-17.33-19.58-.93-1.56-1.99-1.1-3.09-.46-12.07,7.02-24.14,14.05-36.2,21.1-1.08,.63-2.15,1.38-1.85,2.87,1.57,7.76,.43,15.62,.86,23.42,.03,.54,.3,1.07,.72,2.49,2.36-3.9,4.33-7.11,6.26-10.34,1.73-2.91,3.96-5.14,7.44-3.07,3.29,1.95,2.44,4.85,.81,7.62-4.9,8.33-9.71,16.72-14.69,25.01-3.19,5.3-6.84,5.34-10.05,.05-5.02-8.26-9.83-16.65-14.72-24.99-1.6-2.73-2.56-5.66,.7-7.67,3.47-2.14,5.72,.08,7.45,2.99,1.79,3,3.59,6,6.51,8.81,0-6.18-.49-12.41,.14-18.52,.56-5.47-1.39-8.19-6.22-10.49-10.38-4.96-20.48-10.51-30.61-15.96-2.66-1.43-4.22-1.43-5.84,1.53-3.84,7.04-9.56,12.71-14.88,19.3,3.18,1.16,5.95-.22,8.69-.24,3.32-.02,6.53,.24,6.82,4.32,.26,3.79-2.79,4.88-5.84,5.14-9.63,.81-19.27,1.46-28.91,2.12-2.41,.16-4.69-.29-5.85-2.75-1.16-2.46,.09-4.36,1.63-6.24,4.13-5.06,6.45-11.12,9.21-16.93,.65-1.37,1.35-2.8,2.37-3.89,1.39-1.49,3.29-1.61,5.1-.74,1.89,.91,2.66,2.61,2.29,4.59-.35,1.9-1.05,3.73-1.2,5.86,4.93-4.95,9.66-10.01,13.02-16.19,1.56-2.86-1.04-3.39-2.66-4.25-11.25-5.97-22.54-11.87-33.81-17.8-.95-.5-1.89-1.02-2.84-1.52-2.35-1.25-4.64-2.55-4.6-5.72,.04-3.26,2.5-4.29,4.93-5.35,12.53-5.43,25.06-10.86,37.59-16.29,1.69-.73,3.41-1.41,5.07-2.19,2.76-1.29,3.97-.22,4.3,2.58,.62,5.25-.73,10.39-.8,15.6-.02,2.05-2,2.48-3.44,3.31-3.53,2.04-8.29,3.5-7.93,8.51,.34,4.75,4.87,6.4,8.65,8.02,11.75,5.03,24.29,6.45,36.86,7.23,17.84,1.1,35.59,.24,53-4.27,4.76-1.23,9.46-2.74,13.53-5.64,5.19-3.69,5.46-8.03-.04-11.23-4.29-2.5-5.17-5.39-4.15-9.71,.7-2.98,1.2-6.01,1.76-9.02,.62-3.32,2.41-3.81,5.32-2.5,9.79,4.43,19.64,8.7,29.41,13.16,2.83,1.29,5.52,3.1,5.64,6.66,.11,3.44-2.95,4.41-5.25,5.77-10.19,5.99-20.38,11.96-30.67,17.77-2.85,1.61-3.45,2.82-.87,5.34,4.03,3.96,7.74,8.25,12.23,13.1Z"/>
          <path d="M137.15,392.41c-1.92,2.03-1.4,4.11-1.41,5.99-.12,14.26-.17,28.53-.23,42.79,0,.92,.01,1.84-.03,2.76-.15,3.48-.31,7.35-5.03,7.22-4.38-.12-4.61-3.8-4.58-7.14,.2-16.87,.46-33.74,.65-50.6,.02-1.76,.6-3.62-.8-5.91-1.77,2.84-3.37,5.35-4.92,7.9-1.28,2.1-2.46,4.25-3.74,6.34-1.78,2.9-3.91,5.73-7.68,3.34-3.43-2.18-2.2-5.25-.51-8.08,2.91-4.87,5.81-9.75,8.72-14.62,2.44-4.08,4.8-8.21,7.37-12.21,3.1-4.82,6.54-4.96,9.6-.15,5.84,9.19,11.41,18.55,17.09,27.84,1.62,2.65,2.09,5.35-.89,7.25-3.26,2.08-5.46,.12-7.19-2.58-2.12-3.31-4.2-6.64-6.42-10.14Z"/>
          <path d="M70.43,406.1c.56,5.87,1.05,10.42,1.41,14.98,.26,3.39,.05,6.93-4.35,7.21-4.1,.26-4.85-3.05-5.15-6.27-.8-8.71-1.57-17.41-3.26-26.01-.82-4.2,1.24-6.74,5.5-6.31,12.87,1.29,24.45,5.71,33.78,15.03,2.25,2.25,3.71,4.93,.97,7.61-2.69,2.64-5.31,1.26-7.64-.98-1.39-1.33-2.87-2.56-4.67-3.56,5.37,7.74,9.05,16.03,10.29,25.31,.84,6.27,.86,12.54-.14,18.8-.49,3.03-1.77,5.51-5.25,5.15-3.5-.36-4.19-3.01-4-6.12,.43-7.05,.94-14.11-.84-21.07-2.44-9.55-7.51-17.26-16.64-23.77Z"/>
          <path d="M181.9,404.74c-4.69,1.35-8.44,4.28-12.48,6.62-2.87,1.66-5.84,3.02-8.03-.49-2.16-3.46,.19-5.71,3.01-7.48,6.91-4.33,13.98-8.32,21.67-11.13,3.05-1.11,6.18-1.93,9.44-1.86,3.88,.07,6.06,2.1,5.87,6.08-.45,9.04-.95,18.08-1.57,27.12-.2,2.94-1.27,5.67-4.85,5.56-3.82-.12-4.7-2.94-4.6-6.15,.12-3.9,.39-7.8,.66-12.96-9.64,10.79-15.12,22.19-17.63,35.08-.41,2.11-.68,4.24-.97,6.37-.4,2.91-1.72,5.16-4.91,4.98-3.46-.19-4.63-2.77-4.43-5.85,.37-5.69,1.65-11.23,3.39-16.66,3.03-9.45,7.62-18.08,13.78-25.88,.71-.9,1.94-1.58,1.67-3.36Z"/>
          <path d="M141.46,435.19c0-3.99,0-7.98,0-11.97,0-2.59,.94-3.91,3.64-2.61,4.84,2.34,9.64,4.74,14.46,7.12,1.94,.95,1.96,2.47,1.41,4.28-1.6,5.29-2.92,10.65-3.48,16.18-.26,2.63-1.54,3.57-4.31,3.39-11.87-.77-11.87-.69-11.83-12.7,0-1.23,0-2.46,0-3.68,.04,0,.07,0,.11,0Z"/>
          <path d="M120.01,435.01c0,3.82-.1,7.64,.03,11.45,.1,2.76-1.08,3.66-3.75,3.9-12.39,1.12-12.39,1.19-12.63-11.24-.02-1.07-.03-2.14-.12-3.2q-.9-10.36,8.4-14.3,8.63-3.65,8.54,5.61c-.02,2.59,0,5.19,0,7.78-.16,0-.31,0-.47,0Z"/>
        </g>
      </g>
      <g>
        <g>
          <g>
            <path class="cls-3" d="M1244.26,591.73c-4.53,.07-10.53,.16-16.48-.69-10.51-1.5-20.67-4.22-30.46-8.41-15.24-6.53-28.89-15.32-40.69-27.02-8.5-8.43-15.83-17.77-21.65-28.17-6.22-11.14-10.78-22.96-13.42-35.52-2.25-10.71-3.32-21.51-2.82-32.4,.57-12.66,2.9-25.02,7.18-37.01,4.36-12.22,10.42-23.52,18.13-33.94,8.08-10.92,17.76-20.22,28.81-28.09,10.85-7.74,22.73-13.44,35.42-17.52,15-4.82,30.39-6.53,46.07-5.76,6.82,.33,13.58,1.39,20.24,2.89,19.06,4.29,36.32,12.42,51.61,24.56,17.9,14.22,31.14,31.96,39.65,53.14,3.51,8.73,6.04,17.79,7.46,27.09,1.31,8.61,1.87,17.28,1.42,26.04-.67,12.97-3.23,25.52-7.65,37.68-5.22,14.34-12.85,27.32-22.83,38.91-8.02,9.32-17.09,17.44-27.42,24.16-15.64,10.18-32.66,16.76-51.16,19.4-3.61,.51-7.3,.54-10.95,.66-2.99,.1-5.99,.02-10.46,.02Z"/>
            <path class="cls-4" d="M1244.49,579.67c-4.1,.07-9.53,.14-14.92-.63-9.51-1.36-18.71-3.82-27.58-7.62-13.8-5.91-26.16-13.87-36.83-24.46-7.7-7.63-14.33-16.08-19.6-25.5-5.63-10.08-9.76-20.78-12.15-32.16-2.04-9.7-3-19.47-2.56-29.33,.52-11.46,2.63-22.65,6.5-33.51,3.95-11.07,9.43-21.29,16.41-30.73,7.31-9.88,16.08-18.3,26.08-25.43,9.83-7,20.58-12.17,32.07-15.86,13.58-4.36,27.52-5.91,41.71-5.22,6.17,.3,12.29,1.26,18.33,2.62,17.26,3.88,32.88,11.24,46.72,22.24,16.21,12.87,28.19,28.93,35.89,48.11,3.17,7.9,5.47,16.11,6.75,24.52,1.18,7.8,1.69,15.64,1.28,23.58-.61,11.75-2.92,23.11-6.92,34.11-4.72,12.98-11.63,24.73-20.67,35.23-7.26,8.44-15.47,15.79-24.82,21.87-14.16,9.22-29.57,15.18-46.32,17.56-3.27,.47-6.61,.49-9.92,.6-2.71,.09-5.43,.02-9.47,.02Z"/>
          </g>
          <g>
            <path d="M1444.84,461.59v-7.93h-18.56v34.67h18.56v-7.93h12.84v12.02l-7.2,7.2h-29.85l-7.2-7.2v-42.85l7.2-7.2h29.85l7.2,7.2v12.02h-12.84Z"/>
            <path d="M1509.77,449.57v42.85l-7.2,7.2h-29.85l-7.2-7.2v-42.85l7.2-7.2h29.85l7.2,7.2Zm-31.4,38.76h18.56v-34.67h-18.56v34.67Z"/>
            <path d="M1576.41,442.37v57.24h-12.92v-23.22l-9.32,19.46h-12.76l-9.4-19.46v23.22h-12.84v-57.24h12.84v5.48l15.78,34.1,15.7-34.1v-5.48h12.92Z"/>
            <path d="M1598.81,453.66v11.69h15.95v11.28h-15.95v22.98h-12.84v-50.04l7.2-7.2h31.89v11.28h-26.25Z"/>
            <path d="M1674.53,449.57v42.85l-7.2,7.2h-29.85l-7.2-7.2v-42.85l7.2-7.2h29.85l7.2,7.2Zm-31.4,38.76h18.56v-34.67h-18.56v34.67Z"/>
            <path d="M1715.82,482.28l13.66,17.33h-16.35l-13.33-17.33h-3.11v17.33h-12.84v-57.24h37.04l7.2,7.2v25.51l-7.2,7.2h-5.07Zm-.57-11.28v-17.33h-18.56v17.33h18.56Z"/>
            <path d="M1782.71,442.37v11.28h-18.48v45.95h-12.84v-45.95h-18.56v-11.28h49.88Z"/>
            <path d="M1832.34,449.57v50.04h-12.84v-11.61h-18.56v11.61h-12.84v-50.04l7.2-7.2h29.85l7.2,7.2Zm-12.84,27.07v-22.98h-18.56v22.98h18.56Z"/>
            <path d="M1886.15,463.31l-7.2,7.2,7.2,7.2v14.72l-7.2,7.2h-37.04v-57.24h37.04l7.2,7.2v13.74Zm-31.4,1.47h18.56v-11.12h-18.56v11.12Zm18.56,23.55v-12.18h-18.56v12.18h18.56Z"/>
            <path d="M1933.9,488.33v11.28h-31.89l-7.2-7.2v-50.04h12.84v45.95h26.25Z"/>
            <path d="M1952.38,453.66v11.69h15.95v11.28h-15.95v11.69h26.25v11.28h-39.08v-57.24h39.08v11.28h-26.25Z"/>
          </g>
        </g>
        <path d="M1333.36,442.88c-.1,1.11-1.02,1.52-1.67,2.06-18.08,15.06-36.71,29.37-57.16,41.13-8.71,5.01-17.71,9.45-27.45,12.18-3.76,1.05-7.58,1.73-11.5,1.76-3.14,.03-6.09-.65-8.92-2-4.35-2.07-8.36-4.67-12.25-7.48-6.88-4.98-13.48-10.35-20.53-15.11-3.38-2.28-6.83-4.41-10.57-6.07-4.95-2.21-10.22-3.06-15.56-3.4-4.6-.29-9.22-.33-13.82,.31-1.25,.18-2.53,.12-3.79,.13-.47,0-.92-.17-1.01-.7-.07-.39,.23-.66,.51-.9,1.52-1.28,3.08-2.52,4.57-3.83,8.67-7.62,18.05-14.16,28.57-19.03,5.26-2.44,10.73-4.34,16.25-6.08,.34-.11,.7-.2,1.05-.26,1.67-.27,2.15,.07,2.31,1.74,.1,1.08,.06,2.17,.18,3.24,.07,.64,.42,1.24,1.11,1.4,.78,.18,1.13-.46,1.43-1,1.75-3.17,3.74-6.17,6.16-8.89,.93-1.04,.79-1.67-.6-2.61-.67-.45-1.12-.73-.94-1.64,1.63-8.37,4.13-16.29,10.78-22.24,3.76-3.36,8.21-5.23,13.12-6.03,2.67-.44,3.13,.03,2.84,2.66-.24,2.16-.34,4.32-.31,6.49,.01,1.01,.19,1.97,.98,2.72,1.51,1.42,3.29,1.38,4.73-.29,1.41-1.64,2.66-3.42,4.03-5.1,3.5-4.29,7.37-8.19,11.89-11.42,2.75-1.97,5.72-3.43,9.03-4.24,1.28-.31,2.45-.31,3.71,.11,4.64,1.54,9.35,2.82,14.23,3.34,7.18,.77,14.27,.59,21.15-1.94,1.07-.39,2.4-1.35,3.3-.54,1.12,1.01-.06,2.37-.46,3.48-2.47,6.88-7.11,12.07-13.03,16.2-3.27,2.29-6.74,4.21-10.44,5.73-1.33,.55-2.67,1.13-3.91,1.87-1.57,.94-1.9,1.93-1.37,3.67,.34,1.12,.83,2.19,1.26,3.29,.2,.5,.42,1,.6,1.51,1.86,5.46,.11,8.74-5.43,10.22-4.14,1.11-8.26,.64-12.35-.19-2.48-.5-4.92-1.23-7.44-1.51-1.07-.12-2.17-.25-3.16,.39-1.3,.84-1.81,2.35-1.25,4.35,.83,2.95,1.78,5.87,2.67,8.81,.72,2.38,.7,2.49-1.52,3.52-12.91,5.96-25.57,5.5-37.95-1.55-1.51-.86-2.96-1.77-2.98-3.83,0-.44-.37-.84-.86-.94-.55-.11-.83,.28-1.03,.69-1.11,2.27-2.31,4.5-3.27,6.84-.66,1.6-.16,2.18,1.57,1.91,1.34-.21,2.28,.45,3.27,1.02,3.38,1.96,6.91,3.59,10.68,4.62,10.74,2.94,21.3,2.33,31.61-1.9,2.09-.86,4.15-1.79,6.08-2.98,1.78-1.1,2.39-2.61,2.03-4.6-.26-1.43-.66-2.82-1.27-4.13-.3-.66-.63-1.28-.72-2.02-.26-2.13,.2-2.65,2.33-2.38,1.79,.23,3.58,.53,5.36,.83,3.37,.58,6.7,.16,9.95-.6,1.35-.31,2.39-.23,3.61,.24,3.62,1.4,7.21,2.86,11.11,3.48,2.98,.47,5.95,.52,8.93,.31,9.13-.66,18.11-2.29,27.01-4.36,1.23-.29,2.49-.47,3.74-.66,.23-.03,.48,.12,.78,.2Zm-113.78-18.31c.3,.62,.69,.56,1.03,.61,6.21,.85,12.46,.45,18.69,.48,.36,0,.72-.05,1.08-.11,.55-.1,1.13-.27,1.04-.98-.07-.64-.62-.87-1.18-.89-.63-.02-1.27,0-1.89,.1-4.05,.66-8.11,.56-12.16,.06-2.27-.28-4.41,.17-6.61,.75Zm-29.64,37.21c.14,.78-.18,2.16,.81,2.24,1.32,.11,1.03-1.38,1.23-2.25,.16-.69,.25-1.4,.25-2.11,0-.46-.35-.82-.83-.93-.54-.13-.83,.23-1.04,.64-.38,.73-.39,1.55-.42,2.42Zm72.24-50.15c.54-.22,1.5,.03,1.41-.86-.09-.89-1.12-.73-1.77-.91-.52-.14-1.12-.17-1.36,.5-.13,.38,.06,.74,.41,.89,.4,.18,.85,.25,1.31,.38Z"/>
        <path d="M1339.08,468.47c-2.73,2.34-5.16,4.46-7.63,6.53-14.28,11.97-29.02,23.34-44.66,33.5-10.02,6.51-20.37,12.43-31.51,16.88-5.06,2.02-10.27,3.49-15.66,4.29-6.2,.91-11.84-.58-17.09-3.85-6.37-3.97-12.41-8.41-18.37-12.96-3.3-2.52-6.51-5.13-10.27-7.03-2.14-1.08-3.81-2.97-5.95-4.21-6.82-3.96-14.28-5.5-22.02-5.88-4.6-.23-9.22-.12-13.81,.46-.92,.12-2.32,.58-2.73-.43-.54-1.34,1.08-1.57,1.85-2.23,4.19-3.58,8.37-7.18,12.54-10.77,3.88-3.35,8.64-5.23,12.98-7.82,1.15-.69,2.29-.13,3.38,.32,3.78,1.57,7.19,3.79,10.57,6.06,7.06,4.74,13.57,10.23,20.52,15.11,3.33,2.34,6.76,4.51,10.31,6.52,6.38,3.6,13.21,4.08,20.26,3.1,9.82-1.36,18.77-5.26,27.51-9.66,15.49-7.79,29.73-17.54,43.5-27.98,2.15-1.63,4.29-2.45,6.98-2.19,5.13,.49,10.27,.8,15.41,1.26,1.14,.1,2.34,.1,3.88,1Z"/>
      </g>
      <g>
        <g>
          <g>
            <path class="cls-3" d="M1244.26,254.73c-4.53,.07-10.53,.16-16.48-.69-10.51-1.5-20.67-4.22-30.46-8.41-15.24-6.53-28.89-15.32-40.69-27.02-8.5-8.43-15.83-17.77-21.65-28.17-6.22-11.14-10.78-22.96-13.42-35.52-2.25-10.71-3.32-21.51-2.82-32.4,.57-12.66,2.9-25.02,7.18-37.01,4.36-12.22,10.42-23.52,18.13-33.94,8.08-10.92,17.76-20.22,28.81-28.09,10.85-7.74,22.73-13.44,35.42-17.52,15-4.82,30.39-6.53,46.07-5.76,6.82,.33,13.58,1.39,20.24,2.89,19.06,4.29,36.32,12.42,51.61,24.56,17.9,14.22,31.14,31.96,39.65,53.14,3.51,8.73,6.04,17.79,7.46,27.09,1.31,8.61,1.87,17.28,1.42,26.04-.67,12.97-3.23,25.52-7.65,37.68-5.22,14.34-12.85,27.32-22.83,38.91-8.02,9.32-17.09,17.44-27.42,24.16-15.64,10.18-32.66,16.76-51.16,19.4-3.61,.51-7.3,.54-10.95,.66-2.99,.1-5.99,.02-10.46,.02Z"/>
            <path class="cls-4" d="M1244.49,242.67c-4.1,.07-9.53,.14-14.92-.63-9.51-1.36-18.71-3.82-27.58-7.62-13.8-5.91-26.16-13.87-36.83-24.46-7.7-7.63-14.33-16.08-19.6-25.5-5.63-10.08-9.76-20.78-12.15-32.16-2.04-9.7-3-19.47-2.56-29.33,.52-11.46,2.63-22.65,6.5-33.51,3.95-11.07,9.43-21.29,16.41-30.73,7.31-9.88,16.08-18.3,26.08-25.43,9.83-7,20.58-12.17,32.07-15.86,13.58-4.36,27.52-5.91,41.71-5.22,6.17,.3,12.29,1.26,18.33,2.62,17.26,3.88,32.88,11.24,46.72,22.24,16.21,12.87,28.19,28.93,35.89,48.11,3.17,7.9,5.47,16.11,6.75,24.52,1.18,7.8,1.69,15.64,1.28,23.58-.61,11.75-2.92,23.11-6.92,34.11-4.72,12.98-11.63,24.73-20.67,35.23-7.26,8.44-15.47,15.79-24.82,21.87-14.16,9.22-29.57,15.18-46.32,17.56-3.27,.47-6.61,.49-9.92,.6-2.71,.09-5.43,.02-9.47,.02Z"/>
          </g>
          <g>
            <path d="M1441.74,77.66v-8.67h-15.94v3.92l28.86,21.1v13.74l-7.19,7.2h-27.31l-7.2-7.2v-16.27h12.84v12.18h15.94v-3.92l-28.78-21.1v-13.74l7.2-7.2h27.31l7.19,7.2v12.76h-12.92Z"/>
            <path d="M1507.97,74.39l-18.23,11.94,18.23,11.86v16.76h-12.84v-11.12l-19.05-11.78v22.9h-12.84V57.63h12.84v22.9l19.05-11.77v-11.12h12.84v16.76Z"/>
            <path d="M1533.64,68.99v34.67h6.46v11.28h-25.76v-11.28h6.46v-34.67h-6.46v-11.28h25.76v11.28h-6.46Z"/>
            <path d="M1594.64,57.71v57.24h-12.84v-15.86l-21.18-19.22v35.08h-12.84V57.71h12.84v4.99l21.18,19.13v-24.12h12.84Z"/>
            <path d="M1426.53,152.37v11.69h15.94v11.28h-15.94v22.98h-12.84v-50.04l7.2-7.2h31.89v11.28h-26.25Z"/>
            <path d="M1490.39,180.99l13.66,17.33h-16.35l-13.33-17.33h-3.11v17.33h-12.84v-57.24h37.04l7.2,7.2v25.51l-7.2,7.2h-5.07Zm-.57-11.28v-17.33h-18.56v17.33h18.56Z"/>
            <path d="M1528.82,152.37v34.67h6.46v11.28h-25.76v-11.28h6.46v-34.67h-6.46v-11.28h25.76v11.28h-6.46Z"/>
            <path d="M1555.8,152.37v11.69h15.95v11.28h-15.95v11.69h26.25v11.28h-39.08v-57.24h39.08v11.28h-26.25Z"/>
            <path d="M1636.18,141.09v57.24h-12.84v-15.86l-21.18-19.22v35.08h-12.84v-57.24h12.84v4.99l21.18,19.13v-24.12h12.84Z"/>
            <path d="M1690.15,148.28v42.85l-7.2,7.2h-37.04v-57.24h37.04l7.2,7.2Zm-12.84,38.76v-34.67h-18.56v34.67h18.56Z"/>
            <path d="M1738.39,187.04v11.28h-31.89l-7.2-7.2v-50.04h12.84v45.95h26.25Z"/>
            <path d="M1784.02,141.09v33.03l-7.28,7.2h-10.55v17.01h-12.84v-17.01h-10.55l-7.2-7.2v-33.03h12.84v28.95h22.65v-28.95h12.92Z"/>
          </g>
        </g>
        <g>
          <path d="M1291.01,165.71c-.44,19.97-17.4,38.75-37.24,41.65-14.11,2.06-26.37-2.2-37.73-10.08-10.09-7-18.31-15.92-25.73-25.58-7.31-9.52-14.69-18.98-22.22-28.33-2.06-2.56-3.73-5.38-5.34-8.23-1.39-2.46-.95-4.47,1.28-6.3,3.81-3.13,9.52-3.51,14.03-.96,5.77,3.27,10.48,7.8,14.98,12.58,1.73,1.83,3.33,3.79,4.95,5.72,.89,1.06,1.98,1.54,3.26,1.04,1.34-.52,2.28-1.48,2.38-3.04,.08-1.19-.31-2.29-.61-3.41-6.15-22.98-12.3-45.97-18.51-68.93-1.02-3.78-.6-7.1,2.54-9.62,4.81-3.86,11.65-1.52,13.32,4.55,2.58,9.4,5.05,18.83,7.58,28.25,1.04,3.88,2.11,7.76,3.17,11.64,.33,1.2,1.06,2.03,2.36,1.69,1.36-.35,1.77-1.38,1.31-2.72-.13-.39-.2-.79-.3-1.19-2.61-9.75-5.22-19.49-7.83-29.24-1.54-5.73-3.11-11.45-4.6-17.19-1.07-4.11,.41-7.76,3.89-9.87,3.31-2.01,7.58-1.55,10.63,1.13,1.57,1.38,2.21,3.24,2.73,5.16,3.99,14.88,7.98,29.76,11.97,44.65,.23,.85,.43,1.73,.79,2.53,.4,.92,1.08,1.66,2.22,1.34,1.11-.31,1.45-1.2,1.29-2.25-.14-.94-.37-1.87-.61-2.79-3.4-12.71-6.84-25.41-10.2-38.13-1.8-6.8,3.85-12.6,10.69-11.02,3.8,.88,5.83,3.53,6.8,7.16,2.44,9.16,4.9,18.31,7.35,27.46,1.71,6.39,3.43,12.77,5.15,19.16,.05,.2,.12,.39,.18,.59,.36,1.24,1.05,2.21,2.47,1.79,1.34-.4,1.6-1.46,1.24-2.8-2.09-7.7-4.15-15.4-6.21-23.11-.88-3.29-1.8-6.58-2.62-9.88-1.31-5.28,1.25-9.94,6.13-11.27,4.93-1.35,9.88,1.33,11.33,6.46,1.91,6.76,3.53,13.59,5.28,20.39,1.26,4.88,2.47,9.78,3.81,14.65,.42,1.53,.08,2.21-1.48,2.63-15.78,4.26-23.2,17.33-23.62,31.62-.22,7.32,1.63,14.18,4.05,20.95,.75,2.1,.79,3.94-.06,6.08-1.66,4.18-2.81,8.56-3.16,13.08-.3,3.76,1.91,6.54,5.21,6.78,3.5,.25,6.1-2.1,6.49-5.9,.4-3.89,1.32-7.65,2.59-11.34,.46-1.34,1.07-1.75,2.56-1.39,6.69,1.62,13.46,2.07,20.29,.92,1.83-.31,1.89-.17,1.82,2.92Z"/>
          <path d="M1304.38,136.49c.38,.28,.52,.44,.7,.52,3.97,1.7,4.16,2.29,2.52,6.23-5.53,13.25-16.84,17.63-30.04,16.43-3.6-.33-7.17-.92-10.62-2.06-1.37-.46-2.11-.08-2.68,1.27-2,4.67-3.48,9.46-4,14.53-.06,.61-.17,1.22-.34,1.81-.35,1.22-1.23,1.83-2.46,1.65-1.24-.18-1.99-1.03-1.84-2.3,.24-2.09,.47-4.22,1.01-6.24,4.97-18.54,15.56-32.36,33.69-39.77,3.05-1.25,5.8-2.96,8.22-5.23-7.93,4.81-17.39,6.52-24.77,12.51-5.47,4.44-10.16,9.46-13.68,15.57-.3,.52-.46,1.35-1.13,1.32-.85-.03-.78-.97-1-1.57-2.94-8.1-4.14-16.34-2.08-24.88,2.56-10.59,8.94-17.54,19.4-20.68,2.92-.87,3.85-.27,4.31,2.73,.04,.26,.13,.51,.2,.75,.2,.01,.4,.08,.44,.02,5.62-7.71,13.29-13,21.12-18.15,5.47-3.59,11.22-6.77,16.2-11.07,1.49-1.29,2.86-2.73,4.3-4.08,1.57-1.47,3.26-1.3,4.16,.63,6.07,12.99,8.07,26.18,1.35,39.57-4.16,8.28-10.99,13.94-18.96,18.35-1.25,.69-2.51,1.34-4,2.13Z"/>
        </g>
      </g>
      <g>
        <g>
          <path class="cls-3" d="M125.63,926.43c-4.53,.07-10.53,.16-16.48-.69-10.51-1.5-20.67-4.22-30.46-8.41-15.24-6.53-28.89-15.32-40.69-27.02-8.5-8.43-15.83-17.77-21.65-28.17-6.22-11.14-10.78-22.96-13.42-35.52-2.25-10.71-3.32-21.51-2.82-32.4,.57-12.66,2.9-25.02,7.18-37.01,4.36-12.22,10.42-23.52,18.13-33.94,8.08-10.92,17.76-20.22,28.81-28.09,10.85-7.74,22.73-13.44,35.42-17.52,15-4.82,30.39-6.53,46.07-5.76,6.82,.33,13.58,1.39,20.24,2.89,19.06,4.29,36.32,12.42,51.61,24.56,17.9,14.22,31.14,31.96,39.65,53.14,3.51,8.73,6.04,17.79,7.46,27.09,1.31,8.61,1.87,17.28,1.42,26.04-.67,12.97-3.23,25.52-7.65,37.68-5.22,14.34-12.85,27.32-22.83,38.91-8.02,9.32-17.09,17.44-27.42,24.16-15.64,10.18-32.66,16.76-51.16,19.4-3.61,.51-7.3,.54-10.95,.66-2.99,.1-5.99,.02-10.46,.02Z"/>
          <path class="cls-4" d="M125.87,914.37c-4.1,.07-9.53,.14-14.92-.63-9.51-1.36-18.71-3.82-27.58-7.62-13.8-5.91-26.16-13.87-36.83-24.46-7.7-7.63-14.33-16.08-19.6-25.5-5.63-10.08-9.76-20.78-12.15-32.16-2.04-9.7-3-19.47-2.56-29.33,.52-11.46,2.63-22.65,6.5-33.51,3.95-11.07,9.43-21.29,16.41-30.73,7.31-9.88,16.08-18.3,26.08-25.43,9.83-7,20.58-12.17,32.07-15.86,13.58-4.36,27.52-5.91,41.71-5.22,6.17,.3,12.29,1.26,18.33,2.62,17.26,3.88,32.88,11.24,46.72,22.24,16.21,12.87,28.19,28.93,35.89,48.11,3.17,7.9,5.47,16.11,6.75,24.52,1.18,7.8,1.69,15.64,1.28,23.58-.61,11.75-2.92,23.11-6.92,34.11-4.72,12.98-11.63,24.73-20.67,35.23-7.26,8.44-15.47,15.79-24.82,21.87-14.16,9.22-29.57,15.18-46.32,17.56-3.27,.47-6.61,.49-9.92,.6-2.71,.09-5.43,.02-9.47,.02Z"/>
        </g>
        <g>
          <path d="M352.55,727.9v57.24h-12.92v-23.22l-9.32,19.46h-12.76l-9.4-19.46v23.22h-12.84v-57.24h12.84v5.48l15.78,34.1,15.7-34.1v-5.48h12.92Z"/>
          <path d="M406.11,735.09v42.85l-7.2,7.2h-29.85l-7.2-7.2v-42.85l7.2-7.2h29.85l7.2,7.2Zm-31.4,38.76h18.56v-34.67h-18.56v34.67Z"/>
          <path d="M432.68,739.18v34.67h6.46v11.28h-25.76v-11.28h6.46v-34.67h-6.46v-11.28h25.76v11.28h-6.46Z"/>
          <path d="M474.63,747.85v-8.67h-15.95v3.92l28.86,21.1v13.74l-7.2,7.2h-27.31l-7.2-7.2v-16.27h12.84v12.18h15.95v-3.92l-28.78-21.1v-13.74l7.2-7.2h27.31l7.2,7.2v12.76h-12.92Z"/>
          <path d="M541.76,727.9v11.28h-18.48v45.95h-12.84v-45.95h-18.56v-11.28h49.88Z"/>
          <path d="M591.39,727.9v50.04l-7.2,7.2h-29.85l-7.2-7.2v-50.04h12.84v45.95h18.56v-45.95h12.84Z"/>
          <path d="M632.93,767.8l13.66,17.33h-16.35l-13.33-17.33h-3.11v17.33h-12.84v-57.24h37.04l7.2,7.2v25.51l-7.2,7.2h-5.07Zm-.57-11.28v-17.33h-18.56v17.33h18.56Z"/>
          <path d="M667.03,739.18v11.69h15.95v11.28h-15.95v11.69h26.25v11.28h-39.08v-57.24h39.08v11.28h-26.25Z"/>
          <path d="M358.27,811.27v31.24l-12.51,26h-13.66l-6.05-12.59-6.13,12.59h-13.66l-12.51-26v-31.24h12.84v29.76l6.54,13.33,6.46-13.33v-29.76h12.84v29.76l6.54,13.33,6.46-13.33v-29.76h12.84Z"/>
          <path d="M383.78,822.56v34.67h6.46v11.28h-25.76v-11.28h6.46v-34.67h-6.46v-11.28h25.76v11.28h-6.46Z"/>
          <path d="M428.84,830.49v-7.93h-18.56v34.67h18.56v-7.93h12.84v12.02l-7.2,7.2h-29.85l-7.2-7.2v-42.85l7.2-7.2h29.85l7.2,7.2v12.02h-12.84Z"/>
          <path d="M494.74,827.96l-18.23,11.94,18.23,11.86v16.76h-12.84v-11.12l-19.05-11.78v22.9h-12.84v-57.32h12.84v22.9l19.05-11.77v-11.12h12.84v16.76Z"/>
          <path d="M520.42,822.56v34.67h6.46v11.28h-25.76v-11.28h6.46v-34.67h-6.46v-11.28h25.76v11.28h-6.46Z"/>
          <path d="M581.42,811.27v57.24h-12.84v-15.86l-21.18-19.22v35.08h-12.84v-57.24h12.84v4.99l21.18,19.13v-24.12h12.84Z"/>
          <path d="M622.14,828.61v-6.05h-18.56v34.67h18.56v-6.21h-12.35v-11.28h25.19v21.59l-7.2,7.2h-29.85l-7.2-7.2v-42.85l7.2-7.2h29.85l7.2,7.2v10.14h-12.84Z"/>
        </g>
        <g>
          <path d="M128.17,791.18c-23.44,0-46.88-.06-70.31,.05-4.42,.02-6.8-2.73-6.44-6.48,.04-.39,.02-.8,0-1.19-.14-3.54,2.71-5.77,5.69-5.73,7.21,.1,14.43,.03,21.65,.03,3.78,0,7.56,0,11.35,0,1.57,0,1.61-.04,1.61-1.58,0-3.48,.02-6.97,0-10.45-.02-2.77-1.49-4.23-4.26-4.24-1.89-.01-3.78-.01-5.67,.02-1.07,.02-1.18,.14-1.21,1.23-.03,1.34-.04,2.69-.01,4.03,.02,1.27-.48,2.22-1.63,2.79-1.18,.59-2.25,.26-3.19-.52-1.11-.92-2.17-1.9-3.25-2.86-5.56-4.98-11.12-9.96-16.68-14.93-1.88-1.69-1.97-3.53-.2-5.09,5.9-5.19,11.82-10.35,17.72-15.55,1.08-.95,2.21-1.61,3.64-.98,1.5,.66,1.79,1.99,1.76,3.48-.04,1.79-.02,3.58,0,5.37,.01,1.62,.08,1.71,1.67,1.71,4.78,.01,9.55-.02,14.33,.01,3.12,.02,5.99,.9,8.53,2.74,3.83,2.79,5.88,6.56,5.92,11.31,.06,6.97,.02,13.93,.02,20.9,0,.4,0,.8,0,1.19,.03,1.29,.1,1.37,1.34,1.41,.25,0,.5,0,.75,0,11.3,0,22.59,0,33.89,0,.15,0,.3,0,.45,0,1.62-.02,1.67-.06,1.67-1.69,0-7.17-.09-14.33,.03-21.5,.11-6.14,3.07-10.57,8.67-13.17,1.78-.83,3.7-1.19,5.65-1.2,4.63-.03,9.26-.01,13.88-.01,.3,0,.6,.03,.9,.01,1.08-.06,1.32-.26,1.35-1.34,.03-1.74,0-3.48,0-5.22,0-.5-.02-1,.05-1.49,.35-2.58,2.79-3.6,4.85-2.01,.9,.7,1.74,1.49,2.6,2.24,5.16,4.53,10.31,9.06,15.47,13.6,.6,.53,1.16,1.08,1.37,1.9,.33,1.27-.17,2.24-1.08,3.05-2.47,2.24-4.94,4.48-7.42,6.7-3.26,2.92-6.54,5.82-9.8,8.74-.97,.86-1.93,1.72-2.9,2.58-.93,.83-1.97,1.17-3.16,.67-1.24-.52-1.79-1.52-1.81-2.83-.02-1.34,.01-2.69-.02-4.03-.03-1.1-.15-1.24-1.19-1.25-2.04-.03-4.08-.05-6.12,.01-2.17,.07-3.62,1.55-3.64,3.71-.04,3.68-.03,7.36,0,11.05,0,1.38,.12,1.48,1.59,1.48,8.41,0,16.82,0,25.23,0,2.59,0,5.18-.02,7.76,0,3.23,.03,5.2,1.84,5.55,5.04,.13,1.2,.15,2.38-.02,3.57-.4,2.83-2.41,4.67-5.26,4.7-3.23,.04-6.47,.02-9.7,.02-20.65,0-41.3,0-61.96,0h0Z"/>
          <path d="M128.22,844.59c-21.04,0-42.09,0-63.13,0-2.69,0-5.37,.02-8.06-.03-2.14-.04-3.85-.91-4.94-2.81-.96-1.69-.97-6.13-.01-7.83,1.01-1.8,2.62-2.67,4.63-2.83,.64-.05,1.29-.02,1.94-.02,39.5,0,79,0,118.5,.01,7.21,0,14.43,0,21.64-.02,.9,0,1.79,.06,2.65,.33,2.15,.68,3.55,2.51,3.64,4.77,.03,.89-.05,1.8,.03,2.69,.24,2.97-2.1,5.72-5.7,5.72-2.84,0-5.67,.01-8.51,.01-20.89,0-41.79,0-62.68,0h0Z"/>
          <path d="M128.31,757.39c-3.13,0-6.27,.01-9.4,0-2.59-.01-3.59-1.03-3.6-3.64-.01-5.22,0-10.44,0-15.66,0-.4-.01-.8,0-1.19,.01-.68-.33-1-1-1-1.29,0-2.59-.02-3.88-.02-2.09,0-4.18,0-6.27,0-.4,0-.8,.02-1.19-.04-1.2-.16-2.19-.67-2.65-1.88-.44-1.15-.11-2.15,.67-3.03,3.3-3.78,6.6-7.57,9.91-11.35,4.75-5.42,9.5-10.84,14.26-16.26,.43-.49,.84-.99,1.34-1.4,1.16-.96,2.52-.93,3.67,.07,.49,.42,.92,.91,1.34,1.4,4.46,5.08,8.91,10.17,13.37,15.25,3.28,3.74,6.56,7.47,9.83,11.21,.39,.45,.81,.88,1.15,1.37,1.29,1.88,.35,4.14-1.89,4.56-.53,.1-1.09,.09-1.63,.1-3.08,0-6.17,0-9.25,0-1.57,0-1.69,.12-1.69,1.72-.01,5.02,0,10.05,0,15.07,0,.55,.02,1.1-.04,1.64-.19,1.99-1.3,3.05-3.32,3.08-2.44,.04-4.87,.01-7.31,.01-.8,0-1.59,0-2.39,0Z"/>
          <path d="M93.48,888.18c-8.01-.18-13.62-6.05-14.64-12.65-.46-3.02,.29-5.73,1.49-8.38,1.96-4.32,4.57-8.27,7.35-12.09,1.08-1.49,2.2-2.95,3.36-4.38,1.44-1.77,3.42-1.83,4.81-.05,3.9,4.97,7.65,10.06,10.39,15.8,.39,.81,.71,1.64,1.05,2.47,2.49,6.12-.39,12.66-4.7,16.03-2.87,2.24-5.68,3.05-9.12,3.24Z"/>
          <path d="M148.43,873.82c-.12-3.3,1.15-6.07,2.56-8.75,2.65-5.03,5.93-9.65,9.47-14.09,1.72-2.15,3.62-2.16,5.3-.03,3.23,4.11,6.28,8.34,8.84,12.91,1.05,1.87,2,3.79,2.62,5.84,1.7,5.64,0,10.41-4.01,14.42-2.63,2.64-5.98,3.96-9.69,4.03-6.78,.13-13-4.22-14.75-11.36-.25-1.02-.36-2.05-.33-2.97Z"/>
          <path d="M128.37,897.18c-8.32-.02-14.94-6.7-14.85-14.78,.02-1.62,.44-3.15,1.01-4.64,1.5-3.88,3.65-7.39,5.99-10.8,1.46-2.13,3.03-4.19,4.58-6.26,.38-.52,.81-1.02,1.28-1.45,1.11-1.03,2.64-1.04,3.79-.06,.19,.16,.36,.34,.52,.54,3.73,4.79,7.32,9.67,10.06,15.12,.47,.93,.88,1.89,1.27,2.86,2.69,6.67-.37,14.02-6.33,17.49-2.33,1.36-4.82,2.09-7.32,1.97Z"/>
          <path d="M185.26,799.08c.81,0,1.66-.05,2.5,.01,1.61,.11,2.78,1.27,2.83,2.73,.05,1.39-.98,2.61-2.49,2.92-.29,.06-.59,.09-.89,.08-3.25-.15-6.44,.33-9.63,.83-1.46,.23-2.64-.35-3.24-1.55-.84-1.66,.09-3.57,2.02-4.02,1.21-.28,2.45-.43,3.68-.6,1.72-.23,3.44-.51,5.23-.4Z"/>
          <path d="M120.52,803.43c-2.3-.15-4.55,.28-6.8,.71-.54,.1-1.07,.24-1.62,.27-1.46,.07-2.61-.82-2.94-2.23-.3-1.27,.37-2.57,1.66-3.16,.31-.14,.65-.24,.99-.31,2.92-.64,5.85-1.11,8.85-1.09,.9,0,1.78,.13,2.66,.31,1.44,.3,2.37,1.49,2.28,2.87-.1,1.53-1.15,2.57-2.7,2.64-.79,.04-1.59,0-2.38,0Z"/>
          <path d="M155.77,797.92c1.2,.2,2.68,.41,4.14,.71,2.04,.41,4.08,.89,6.11,1.34,.29,.06,.58,.13,.86,.24,1.44,.55,2.22,1.95,1.85,3.31-.4,1.49-1.74,2.41-3.29,2.13-2.2-.41-4.38-.9-6.56-1.37-1.26-.27-2.54-.47-3.81-.67-2.08-.33-3.15-2.15-2.42-3.93,.47-1.14,1.54-1.8,3.12-1.76Z"/>
          <path d="M120.64,818.93c-2.55-.18-4.78,.34-7.03,.73-.44,.08-.88,.17-1.32,.18-1.51,.03-2.66-.87-2.9-2.24-.26-1.47,.5-2.77,1.97-3.25,1.28-.42,2.62-.56,3.93-.81,2.31-.44,4.63-.49,6.97-.38,.6,.03,1.19,.12,1.75,.34,1.2,.47,1.98,1.78,1.81,2.96-.2,1.37-1.21,2.37-2.59,2.46-.94,.07-1.89,.01-2.58,.01Z"/>
          <path d="M185.64,821.31c-2.74-.06-5.43,.54-8.15,.71-1.45,.09-2.55-.49-3.04-1.65-.75-1.75,.22-3.58,2.17-3.94,1.41-.26,2.85-.42,4.28-.56,1.93-.18,3.85-.45,5.79-.36,.75,.04,1.49,.1,2.2,.36,1.29,.47,2,1.71,1.81,3.08-.18,1.25-1.22,2.25-2.53,2.34-.84,.06-1.69,.01-2.53,.01Z"/>
          <path d="M135.95,799.66c2.87,.21,5.2-.32,7.55-.7,.44-.07,.88-.16,1.33-.08,1.32,.25,2.34,1.38,2.41,2.67,.07,1.24-.71,2.46-1.99,2.82-1.14,.32-2.33,.5-3.5,.68-2.85,.43-5.71,.74-8.59,.16-1.69-.34-2.51-1.42-2.36-3.04,.15-1.56,1.11-2.45,2.78-2.51,.94-.03,1.89,0,2.37,0Z"/>
          <path d="M69.63,822.53c-.35-.02-.81,0-1.24-.09-1.27-.26-2.22-1.37-2.29-2.61-.06-1.24,.77-2.42,2-2.83,1.1-.37,2.27-.22,3.39-.4,2.21-.36,4.38-.88,6.55-1.41,.43-.11,.87-.22,1.31-.26,1.54-.12,2.76,.76,3.09,2.21,.32,1.37-.47,2.8-1.93,3.27-2.08,.66-4.22,1.12-6.37,1.53-1.46,.28-2.94,.5-4.52,.6Z"/>
          <path d="M66.04,805.22c-.02-1.47,.84-2.62,2.33-2.82,3.12-.4,6.11-1.29,9.13-2.1,.67-.18,1.34-.38,2.05-.35,1.35,.06,2.46,1.01,2.71,2.33,.22,1.22-.48,2.52-1.64,3.05-.05,.02-.09,.05-.14,.06-3.74,.97-7.4,2.31-11.3,2.61-1.8,.14-3.12-1.05-3.15-2.79Z"/>
          <path d="M156.18,813.73c1.02,.17,2.4,.36,3.75,.65,2.13,.46,4.25,.99,6.37,1.5,.29,.07,.58,.16,.85,.27,1.4,.59,2.07,1.94,1.71,3.4-.32,1.32-1.6,2.22-3.06,2.03-1.13-.15-2.23-.47-3.34-.72-2.32-.53-4.62-1.15-7-1.41-.69-.07-1.36-.28-1.89-.78-.87-.8-1.16-2.05-.72-3.14,.48-1.19,1.55-1.84,3.33-1.81Z"/>
          <path d="M91.08,814.04c1.83,.28,3.93,.61,6.04,.92,1.37,.2,2.75,.39,4.13,.54,1.87,.21,3.01,1.43,2.87,3.13-.14,1.71-1.61,2.77-3.53,2.58-2.82-.28-5.6-.78-8.39-1.24-.78-.13-1.59-.14-2.35-.36-2.12-.61-2.85-2.99-1.46-4.62,.63-.73,1.45-1.01,2.68-.96Z"/>
          <path d="M137.4,821.04c-1.29-.02-2.58,.07-3.86-.19-1.73-.35-2.76-1.56-2.63-3.07,.13-1.57,1.45-2.75,3.25-2.56,3.3,.35,6.53-.04,9.77-.57,1.38-.23,2.56,.38,3.16,1.47,.56,1.03,.42,2.31-.34,3.2-.55,.65-1.3,.91-2.09,1.03-2.4,.37-4.8,.81-7.25,.68Z"/>
          <path d="M91.26,799.07c1.38,.2,3.19,.47,5.01,.7,1.52,.19,3.05,.37,4.58,.48,1.94,.14,3.27,1.4,3.13,3.04-.15,1.68-1.63,2.84-3.5,2.69-2.62-.21-5.23-.52-7.83-.93-.83-.13-1.67-.23-2.5-.39-1.9-.36-2.79-1.44-2.63-3.15,.15-1.62,1.33-2.51,3.73-2.45Z"/>
          <path d="M55.26,821.29c-.89,0-1.79,.03-2.68,0-1.6-.07-2.77-1.17-2.88-2.67-.1-1.38,.89-2.76,2.4-2.96,2.27-.31,4.57-.27,6.81,.27,1.45,.35,2.2,1.74,1.92,3.25-.25,1.37-1.44,2.33-2.89,2.29-.89-.03-1.78-.13-2.67-.21,0,.01,0,.02,0,.04Z"/>
          <path d="M206.57,822.61c-.01,1.57-1.28,2.95-2.83,2.8-2.27-.21-4.51-.7-6.58-1.71-1.27-.62-1.79-1.94-1.45-3.26,.3-1.15,1.36-2.02,2.61-2.07,.39-.01,.8,.04,1.16,.18,1.5,.54,3.03,.89,4.59,1.19,1.61,.31,2.49,1.39,2.48,2.87Z"/>
          <path d="M202.99,807.9c-1.65-.16-3.47-.42-5.23-.93-1.63-.47-2.42-1.85-2.08-3.43,.3-1.4,1.51-2.26,3.15-2.07,1.77,.2,3.53,.5,5.28,.82,1.71,.31,2.77,1.59,2.62,3.06-.16,1.55-1.36,2.53-3.11,2.55-.15,0-.3,0-.62,0Z"/>
          <path d="M56.93,807.31c-1.55-.09-2.95,.34-4.39,.34-1.79,0-3.03-1.28-2.91-3.01,.08-1.22,.88-2.27,2.15-2.53,2.13-.43,4.29-.78,6.48-.38,1.57,.28,2.63,1.54,2.52,2.99-.12,1.48-1.3,2.54-2.91,2.59-.35,.01-.69,0-.94,0Z"/>
        </g>
      </g>
      <g>
        <g>
          <g>
            <path class="cls-3" d="M125.63,1259.2c-4.53,.07-10.53,.16-16.48-.69-10.51-1.5-20.67-4.22-30.46-8.41-15.24-6.53-28.89-15.32-40.69-27.02-8.5-8.43-15.83-17.77-21.65-28.17-6.22-11.14-10.78-22.96-13.42-35.52-2.25-10.71-3.32-21.51-2.82-32.4,.57-12.66,2.9-25.02,7.18-37.01,4.36-12.22,10.42-23.52,18.13-33.94,8.08-10.92,17.76-20.22,28.81-28.09,10.85-7.74,22.73-13.44,35.42-17.52,15-4.82,30.39-6.53,46.07-5.76,6.82,.33,13.58,1.39,20.24,2.89,19.06,4.29,36.32,12.42,51.61,24.56,17.9,14.22,31.14,31.96,39.65,53.14,3.51,8.73,6.04,17.79,7.46,27.09,1.31,8.61,1.87,17.28,1.42,26.04-.67,12.97-3.23,25.52-7.65,37.68-5.22,14.34-12.85,27.32-22.83,38.91-8.02,9.32-17.09,17.44-27.42,24.16-15.64,10.18-32.66,16.76-51.16,19.4-3.61,.51-7.3,.54-10.95,.66-2.99,.1-5.99,.02-10.46,.02Z"/>
            <path class="cls-4" d="M125.87,1247.15c-4.1,.07-9.53,.14-14.92-.63-9.51-1.36-18.71-3.82-27.58-7.62-13.8-5.91-26.16-13.87-36.83-24.46-7.7-7.63-14.33-16.08-19.6-25.5-5.63-10.08-9.76-20.78-12.15-32.16-2.04-9.7-3-19.47-2.56-29.33,.52-11.46,2.63-22.65,6.5-33.51,3.95-11.07,9.43-21.29,16.41-30.73,7.31-9.88,16.08-18.3,26.08-25.43,9.83-7,20.58-12.17,32.07-15.86,13.58-4.36,27.52-5.91,41.71-5.22,6.17,.3,12.29,1.26,18.33,2.62,17.26,3.88,32.88,11.24,46.72,22.24,16.21,12.87,28.19,28.93,35.89,48.11,3.17,7.9,5.47,16.11,6.75,24.52,1.18,7.8,1.69,15.64,1.28,23.58-.61,11.75-2.92,23.11-6.92,34.11-4.72,12.98-11.63,24.73-20.67,35.23-7.26,8.44-15.47,15.79-24.82,21.87-14.16,9.22-29.57,15.18-46.32,17.56-3.27,.47-6.61,.49-9.92,.6-2.71,.09-5.43,.02-9.47,.02Z"/>
          </g>
          <g>
            <path d="M308.15,1113.72v11.69h15.95v11.28h-15.95v11.69h26.25v11.28h-39.09v-57.24h39.09v11.28h-26.25Z"/>
            <path d="M380.51,1148.39v11.28h-31.89l-7.2-7.2v-50.04h12.84v45.95h26.25Z"/>
            <path d="M430.15,1109.63v50.04h-12.84v-11.61h-18.56v11.61h-12.84v-50.04l7.2-7.2h29.85l7.2,7.2Zm-12.84,27.07v-22.98h-18.56v22.98h18.56Z"/>
            <path d="M467.6,1122.39v-8.67h-15.95v3.92l28.86,21.1v13.74l-7.2,7.2h-27.31l-7.2-7.2v-16.27h12.84v12.18h15.95v-3.92l-28.78-21.1v-13.74l7.2-7.2h27.31l7.2,7.2v12.76h-12.92Z"/>
            <path d="M534.73,1102.44v11.28h-18.48v45.95h-12.84v-45.95h-18.56v-11.28h49.88Z"/>
            <path d="M557.54,1113.72v34.67h6.46v11.28h-25.76v-11.28h6.46v-34.67h-6.46v-11.28h25.76v11.28h-6.46Z"/>
            <path d="M602.6,1121.65v-7.93h-18.56v34.67h18.56v-7.93h12.84v12.02l-7.2,7.2h-29.85l-7.2-7.2v-42.85l7.2-7.2h29.85l7.2,7.2v12.02h-12.84Z"/>
            <path d="M640.94,1113.72v34.67h6.46v11.28h-25.76v-11.28h6.46v-34.67h-6.46v-11.28h25.76v11.28h-6.46Z"/>
            <path d="M700.72,1102.44v11.28h-18.48v45.95h-12.84v-45.95h-18.56v-11.28h49.88Z"/>
            <path d="M752.97,1102.44v33.04l-7.28,7.2h-10.55v17.01h-12.84v-17.01h-10.55l-7.2-7.2v-33.04h12.84v28.95h22.65v-28.95h12.92Z"/>
          </g>
        </g>
        <g id="Page-1">
          <g id="_019---Thin-Fabric" data-name="019---Thin-Fabric">
            <path id="Shape" class="cls-2" d="M43.88,1147.17l8.27,11.31c-2.89,1.75-5.66,3.7-8.27,5.85v-17.16Zm13.53,8.35l-13.53-18.5v-14.44l21.37,29.26c-2.89,1.22-5.5,2.46-7.85,3.68Zm13.63-5.91l-27.15-37.17v-13.05c.68,.57,1.46,1.2,2.34,1.85l33.36,45.65c-3.07,.85-5.89,1.78-8.55,2.73h0Zm14.81-4.32l-26.33-36.02c4.83,2.35,9.82,4.36,14.93,6l20.61,28.18c-3.23,.55-6.3,1.17-9.21,1.84h0Zm15.9-2.85l-17.92-24.49c3.84,.95,7.97,1.8,12.4,2.52l15.32,20.96c-3.41,.27-6.68,.6-9.81,1.01h0Zm16.93-1.41l-14.21-19.45c3.59,.41,7.32,.73,11.25,.95l13.38,18.32c-.46,0-.9-.02-1.37-.02-3.12,0-6.12,.08-9.05,.2h0Zm17.97,0l-13.31-18.22c1.45,.03,2.9,.06,4.39,.06,2.08,0,4.12-.03,6.11-.09l13.89,18.99c-3.54-.34-7.24-.59-11.09-.75h0Zm19.21,1.71l-14.83-20.28c3.45-.21,6.76-.5,9.94-.86l17.04,23.31c-3.78-.83-7.84-1.56-12.15-2.17h0Zm21.26,4.51l-19.41-26.55c3.26-.5,6.37-1.06,9.32-1.7l24.37,33.36c-4.64-2-9.41-3.71-14.26-5.11h-.01Zm26.16,11.23l-29.94-40.97c3.08-.8,5.97-1.65,8.68-2.57l29.55,40.44v8.95c-2.62-2.15-5.38-4.11-8.28-5.86h0Zm8.29-37.83l-10.35-14.18c3.65-2.06,7.11-4.43,10.35-7.08v21.26Zm-15.7-11.35l15.7,21.5v14.43l-23.69-32.42c2.92-1.15,5.58-2.33,7.98-3.51Zm-150.96-21.62c.55-.48,1.25-.74,1.97-.74h.2c.81,.06,1.57,.44,2.1,1.06,.2,.24,21.53,22.89,78.55,22.89s78.39-22.7,78.6-22.93c1.11-1.13,2.92-1.2,4.11-.15s1.36,2.84,.38,4.1c-.88,1.02-22.5,24.98-83.09,24.98s-82.21-23.96-83.1-24.98c-1.09-1.24-.96-3.14,.28-4.23h0Zm165.65,88.35c-1.26,1.07-3.15,.94-4.25-.3-.86-.94-21.71-22.91-78.57-22.91s-78.39,22.7-78.6,22.93c-1.11,1.13-2.92,1.2-4.11,.15-1.19-1.05-1.36-2.84-.38-4.1,.88-1.02,22.5-24.98,83.09-24.98s82.21,23.96,83.1,24.98c1.09,1.24,.96,3.13-.28,4.22h0Z"/>
            <path id="Shape-2" data-name="Shape" class="cls-2" d="M126.6,1095.42l-17.67-20.96c-.39-.44-.48-1.07-.24-1.6s.77-.88,1.36-.88h7.19c.83,0,1.5-.67,1.5-1.5v-22.46c0-1.65,1.34-2.99,2.99-2.99h11.98c1.65,0,2.99,1.34,2.99,2.99v22.46c0,.83,.67,1.5,1.5,1.5h7.19c.59,0,1.12,.34,1.36,.88,.24,.53,.15,1.16-.24,1.6l-17.67,20.96c-.28,.32-.69,.51-1.13,.51s-.84-.19-1.13-.51h0Z"/>
            <path id="Shape-3" data-name="Shape" class="cls-2" d="M126.6,1168.31l-17.67,20.96c-.39,.44-.48,1.07-.24,1.6s.77,.88,1.36,.88h7.19c.83,0,1.5,.67,1.5,1.5v22.46c0,1.65,1.34,2.99,2.99,2.99h11.98c1.65,0,2.99-1.34,2.99-2.99v-22.46c0-.83,.67-1.5,1.5-1.5h7.19c.59,0,1.12-.34,1.36-.88s.15-1.16-.24-1.6l-17.67-20.96c-.28-.32-.69-.51-1.13-.51s-.84,.19-1.13,.51h0Z"/>
          </g>
        </g>
      </g>
      <g>
        <g>
          <g>
            <path class="cls-3" d="M1244.26,1259.2c-4.53,.07-10.53,.16-16.48-.69-10.51-1.5-20.67-4.22-30.46-8.41-15.24-6.53-28.89-15.32-40.69-27.02-8.5-8.43-15.83-17.77-21.65-28.17-6.22-11.14-10.78-22.96-13.42-35.52-2.25-10.71-3.32-21.51-2.82-32.4,.57-12.66,2.9-25.02,7.18-37.01,4.36-12.22,10.42-23.52,18.13-33.94,8.08-10.92,17.76-20.22,28.81-28.09,10.85-7.74,22.73-13.44,35.42-17.52,15-4.82,30.39-6.53,46.07-5.76,6.82,.33,13.58,1.39,20.24,2.89,19.06,4.29,36.32,12.42,51.61,24.56,17.9,14.22,31.14,31.96,39.65,53.14,3.51,8.73,6.04,17.79,7.46,27.09,1.31,8.61,1.87,17.28,1.42,26.04-.67,12.97-3.23,25.52-7.65,37.68-5.22,14.34-12.85,27.32-22.83,38.91-8.02,9.32-17.09,17.44-27.42,24.16-15.64,10.18-32.66,16.76-51.16,19.4-3.61,.51-7.3,.54-10.95,.66-2.99,.1-5.99,.02-10.46,.02Z"/>
            <path class="cls-4" d="M1244.49,1247.15c-4.1,.07-9.53,.14-14.92-.63-9.51-1.36-18.71-3.82-27.58-7.62-13.8-5.91-26.16-13.87-36.83-24.46-7.7-7.63-14.33-16.08-19.6-25.5-5.63-10.08-9.76-20.78-12.15-32.16-2.04-9.7-3-19.47-2.56-29.33,.52-11.46,2.63-22.65,6.5-33.51,3.95-11.07,9.43-21.29,16.41-30.73,7.31-9.88,16.08-18.3,26.08-25.43,9.83-7,20.58-12.17,32.07-15.86,13.58-4.36,27.52-5.91,41.71-5.22,6.17,.3,12.29,1.26,18.33,2.62,17.26,3.88,32.88,11.24,46.72,22.24,16.21,12.87,28.19,28.93,35.89,48.11,3.17,7.9,5.47,16.11,6.75,24.52,1.18,7.8,1.69,15.64,1.28,23.58-.61,11.75-2.92,23.11-6.92,34.11-4.72,12.98-11.63,24.73-20.67,35.23-7.26,8.44-15.47,15.79-24.82,21.87-14.16,9.22-29.57,15.18-46.32,17.56-3.27,.47-6.61,.49-9.92,.6-2.71,.09-5.43,.02-9.47,.02Z"/>
          </g>
          <g>
            <path d="M1457.68,1109.63v42.85l-7.2,7.2h-8.5v7.2h-12.84v-7.2h-8.5l-7.2-7.2v-42.85l7.2-7.2h29.85l7.2,7.2Zm-12.84,38.76v-34.67h-18.56v34.67h18.56Z"/>
            <path d="M1511.08,1102.44v50.04l-7.2,7.2h-29.85l-7.2-7.2v-50.04h12.84v45.95h18.56v-45.95h12.84Z"/>
            <path d="M1537.89,1113.72v34.67h6.46v11.28h-25.76v-11.28h6.46v-34.67h-6.46v-11.28h25.76v11.28h-6.46Z"/>
            <path d="M1582.95,1121.65v-7.93h-18.56v34.67h18.56v-7.93h12.84v12.02l-7.2,7.2h-29.85l-7.2-7.2v-42.85l7.2-7.2h29.85l7.2,7.2v12.02h-12.84Z"/>
            <path d="M1648.86,1119.12l-18.23,11.94,18.23,11.86v16.76h-12.84v-11.12l-19.05-11.77v22.9h-12.84v-57.32h12.84v22.9l19.05-11.77v-11.12h12.84v16.76Z"/>
            <path d="M1723.18,1109.63v42.85l-7.2,7.2h-37.04v-57.24h37.04l7.2,7.2Zm-12.84,38.76v-34.67h-18.56v34.67h18.56Z"/>
            <path d="M1764.47,1142.34l13.66,17.33h-16.35l-13.33-17.33h-3.11v17.33h-12.84v-57.24h37.04l7.2,7.2v25.51l-7.2,7.2h-5.07Zm-.57-11.28v-17.33h-18.56v17.33h18.56Z"/>
            <path d="M1832.34,1102.44v33.03l-7.28,7.2h-10.55v17.01h-12.84v-17.01h-10.55l-7.2-7.2v-33.03h12.84v28.95h22.65v-28.95h12.92Z"/>
          </g>
        </g>
        <g>
          <path class="cls-2" d="M1303.46,1061.41s-12.09,12.66-18.51,24.3c-10.42,18.88,3.83,33.97,18.49,33.98,.42-.03,2.9,.08,6.13-.85,9.41-2.66,16.31-11.31,16.31-21.57,0-12.38-22.41-35.86-22.41-35.86Z"/>
          <path class="cls-2" d="M1231.88,1099.27c-19.57,2.17-35.16,17.76-37.34,37.34h13.84v9.4h-13.84c2.16,19.58,17.75,35.18,37.34,37.34v-13.84h9.4v13.84c19.58-2.17,35.16-17.76,37.34-37.34h-46.74v-46.74Z"/>
          <path class="cls-2" d="M1275.87,1082.75c-8.95-6.03-19.14-9.9-29.9-11.33v-10.02h14.1v-9.4h-47v9.4h14.1v10.02c-10.4,1.38-20.27,5.04-29,10.73l-9.98-9.98-6.65,6.65,9.03,9.03c-31.27,26.99-32.73,74.42-3.86,103.29,27.55,27.55,72.14,27.55,99.7,0,16.89-16.89,23.45-40.1,19.58-62.17-22.65,1.8-43-21.31-30.13-46.23Zm12.4,58.55c0,28.51-23.19,51.7-51.7,51.7-28.55,0-51.7-23.15-51.7-51.7,0-28.51,23.19-51.7,51.7-51.7h4.7v47h47v4.7Z"/>
        </g>
      </g>
      <g>
        <g>
          <g>
            <path class="cls-3" d="M1244.26,926.43c-4.53,.07-10.53,.16-16.48-.69-10.51-1.5-20.67-4.22-30.46-8.41-15.24-6.53-28.89-15.32-40.69-27.02-8.5-8.43-15.83-17.77-21.65-28.17-6.22-11.14-10.78-22.96-13.42-35.52-2.25-10.71-3.32-21.51-2.82-32.4,.57-12.66,2.9-25.02,7.18-37.01,4.36-12.22,10.42-23.52,18.13-33.94,8.08-10.92,17.76-20.22,28.81-28.09,10.85-7.74,22.73-13.44,35.42-17.52,15-4.82,30.39-6.53,46.07-5.76,6.82,.33,13.58,1.39,20.24,2.89,19.06,4.29,36.32,12.42,51.61,24.56,17.9,14.22,31.14,31.96,39.65,53.14,3.51,8.73,6.04,17.79,7.46,27.09,1.31,8.61,1.87,17.28,1.42,26.04-.67,12.97-3.23,25.52-7.65,37.68-5.22,14.34-12.85,27.32-22.83,38.91-8.02,9.32-17.09,17.44-27.42,24.16-15.64,10.18-32.66,16.76-51.16,19.4-3.61,.51-7.3,.54-10.95,.66-2.99,.1-5.99,.02-10.46,.02Z"/>
            <path class="cls-4" d="M1244.49,914.37c-4.1,.07-9.53,.14-14.92-.63-9.51-1.36-18.71-3.82-27.58-7.62-13.8-5.91-26.16-13.87-36.83-24.46-7.7-7.63-14.33-16.08-19.6-25.5-5.63-10.08-9.76-20.78-12.15-32.16-2.04-9.7-3-19.47-2.56-29.33,.52-11.46,2.63-22.65,6.5-33.51,3.95-11.07,9.43-21.29,16.41-30.73,7.31-9.88,16.08-18.3,26.08-25.43,9.83-7,20.58-12.17,32.07-15.86,13.58-4.36,27.52-5.91,41.71-5.22,6.17,.3,12.29,1.26,18.33,2.62,17.26,3.88,32.88,11.24,46.72,22.24,16.21,12.87,28.19,28.93,35.89,48.11,3.17,7.9,5.47,16.11,6.75,24.52,1.18,7.8,1.69,15.64,1.28,23.58-.61,11.75-2.92,23.11-6.92,34.11-4.72,12.98-11.63,24.73-20.67,35.23-7.26,8.44-15.47,15.79-24.82,21.87-14.16,9.22-29.57,15.18-46.32,17.56-3.27,.47-6.61,.49-9.92,.6-2.71,.09-5.43,.02-9.47,.02Z"/>
          </g>
          <g>
            <path d="M1426.77,740.69v11.69h15.95v11.28h-15.95v11.69h26.25v11.28h-39.08v-57.24h39.08v11.28h-26.25Z"/>
            <path d="M1491.2,748.62v-7.93h-18.56v34.67h18.56v-7.93h12.84v12.02l-7.2,7.2h-29.85l-7.2-7.2v-42.85l7.2-7.2h29.85l7.2,7.2v12.02h-12.84Z"/>
            <path d="M1556.13,736.6v42.85l-7.2,7.2h-29.85l-7.2-7.2v-42.85l7.2-7.2h29.85l7.2,7.2Zm-31.4,38.76h18.56v-34.67h-18.56v34.67Z"/>
            <path d="M1426.53,824.07v11.69h15.94v11.28h-15.94v22.98h-12.84v-50.04l7.2-7.2h31.89v11.28h-26.25Z"/>
            <path d="M1490.39,852.69l13.66,17.33h-16.35l-13.33-17.33h-3.11v17.33h-12.84v-57.24h37.04l7.2,7.2v25.51l-7.2,7.2h-5.07Zm-.57-11.28v-17.33h-18.56v17.33h18.56Z"/>
            <path d="M1528.82,824.07v34.67h6.46v11.28h-25.76v-11.28h6.46v-34.67h-6.46v-11.28h25.76v11.28h-6.46Z"/>
            <path d="M1555.8,824.07v11.69h15.95v11.28h-15.95v11.69h26.25v11.28h-39.09v-57.24h39.09v11.28h-26.25Z"/>
            <path d="M1636.18,812.79v57.24h-12.84v-15.86l-21.18-19.22v35.08h-12.84v-57.24h12.84v4.99l21.18,19.13v-24.12h12.84Z"/>
            <path d="M1690.15,819.98v42.85l-7.2,7.2h-37.04v-57.24h37.04l7.2,7.2Zm-12.84,38.76v-34.67h-18.56v34.67h18.56Z"/>
            <path d="M1738.39,858.74v11.28h-31.89l-7.2-7.2v-50.04h12.84v45.95h26.25Z"/>
            <path d="M1784.02,812.79v33.03l-7.28,7.2h-10.55v17.01h-12.84v-17.01h-10.55l-7.2-7.2v-33.03h12.84v28.95h22.65v-28.95h12.92Z"/>
          </g>
        </g>
        <g>
          <path class="cls-2" d="M1293.81,775.02c-18.76-41.08-76.87-40.99-95.6,0-46.93,10.37-40.6,77.68,7.6,79h35.51v-15.33c-21.17-2.34-37.68-20.33-37.68-42.11,0-2.59,2.1-4.69,4.69-4.69,16.39,0,30.64,9.36,37.68,23.01,7.04-13.65,21.29-23.01,37.68-23.01,2.59,0,4.69,2.1,4.69,4.69,0,21.78-16.52,39.77-37.68,42.11v15.33h35.51c48.24-1.33,54.5-68.65,7.6-79h0Z"/>
          <path class="cls-2" d="M1251.09,829.18c14.13-2.19,25.33-13.39,27.52-27.52-14.13,2.19-25.33,13.39-27.52,27.52Z"/>
          <path class="cls-2" d="M1213.41,801.65c2.19,14.13,13.39,25.33,27.52,27.52-2.19-14.13-13.39-25.33-27.52-27.52h0Z"/>
        </g>
      </g>
    </g>
  </g>
</svg>