<?xml version="1.0" encoding="UTF-8"?>
<svg id="Layer_2" data-name="Layer 2" xmlns="http://www.w3.org/2000/svg" viewBox="0 0 1000 1000">
  <defs>
    <style>
      .cls-1 {
        fill: none;
      }
    </style>
  </defs>
  <g id="Layer_1-2" data-name="Layer 1">
    <g>
      <path d="M726.28,469.36L252.02,187.2l-44.38-26.4,22.16,63.75,19.28,55.46c13.01,37.42,38.81,69.04,72.85,89.3l299.1,177.94c24.03,14.3,31.93,45.37,17.63,69.41l-312.71-186.04-30.92-18.4,15.45,44.4,22.87,65.79c13.01,37.42,38.81,69.04,72.85,89.3l127.62,75.92c25.54,15.2,33.93,48.22,18.73,73.76h0s-171.62-102.1-171.62-102.1l77,221.5c6.34,18.22,18.9,33.62,35.48,43.49h0c38.87,23.13,89.13,10.36,112.25-28.51l45.16-75.91,27.51-46.25,58.59-98.48,25.89-43.52,61.74-103.77-98.28-58.47Z"/>
      <rect class="cls-1" width="1000" height="1000"/>
      <circle class="cls-1" cx="500" cy="500" r="500"/>
    </g>
  </g>
</svg>