<?xml version="1.0" encoding="UTF-8"?>
<svg id="Layer_2" data-name="Layer 2" xmlns="http://www.w3.org/2000/svg" viewBox="0 0 621.14 621.14">
  <defs>
    <style>
      .cls-1 {
        fill: none;
      }

      .cls-2 {
        fill: #72be44;
      }
    </style>
  </defs>
  <g id="Layer_1-2" data-name="Layer 1">
    <g>
      <path class="cls-2" d="M451.12,291.54L156.54,116.28l-27.57-16.4,13.77,39.6,11.97,34.45c8.08,23.24,24.11,42.88,45.25,55.46l185.78,110.53c14.93,8.88,19.83,28.18,10.95,43.11l-194.24-115.56-19.21-11.43,9.6,27.58,14.21,40.86c8.08,23.24,24.11,42.88,45.25,55.46l79.27,47.16c15.87,9.44,21.07,29.95,11.64,45.82h0s-106.6-63.42-106.6-63.42l47.83,137.58c3.93,11.32,11.74,20.89,22.04,27.01h0c24.14,14.36,55.36,6.44,69.72-17.71l28.05-47.15,17.09-28.73,36.39-61.17,16.08-27.03,38.35-64.46-61.05-36.32Z"/>
      <rect class="cls-1" width="621.14" height="621.14"/>
      <circle class="cls-1" cx="310.57" cy="310.57" r="310.57"/>
    </g>
  </g>
</svg>