<?xml version="1.0" encoding="UTF-8"?>
<svg id="Layer_2" data-name="Layer 2" xmlns="http://www.w3.org/2000/svg" viewBox="0 0 977.16 337.1">
  <defs>
    <style>
      .cls-1 {
        fill: #78be20;
      }
    </style>
  </defs>
  <g id="Layer_1-2" data-name="Layer 1">
    <g>
      <path class="cls-1" d="M280.81,202.68h-52.82c-5.79,0-7.67-4.69-4.2-10.48l65.89-110.01c3.47-5.79,10.97-10.48,16.75-10.48h52.82c5.79,0,7.67,4.69,4.2,10.48l-65.89,110.01c-3.47,5.79-10.97,10.48-16.75,10.48Z"/>
      <path class="cls-1" d="M370.09,53.62h-52.82c-5.79,0-7.67-4.69-4.2-10.48l19.57-32.67c3.47-5.79,10.97-10.48,16.75-10.48h52.82c5.79,0,7.67,4.69,4.2,10.48l-19.57,32.67c-3.47,5.79-10.97,10.48-16.75,10.48Z"/>
      <path class="cls-1" d="M591.92,0h-147.72c-5.79,0-13.29,4.69-16.75,10.48l-108.85,181.73c-3.47,5.79-1.58,10.48,4.2,10.48h52.86c5.79,0,13.29-4.69,16.75-10.48L490.12,29.07c3.47-5.79,10.97-10.48,16.75-10.48h0c5.79,0,7.67,4.69,4.2,10.48l-97.71,163.13c-3.47,5.79-1.58,10.48,4.2,10.48h52.95c5.79,0,13.29-4.69,16.75-10.48L596.12,10.48c3.47-5.79,1.58-10.48-4.2-10.48Z"/>
      <path class="cls-1" d="M307.14,0h-52.98c-5.79,0-13.29,4.69-16.75,10.48l-97.84,163.35c-3.47,5.79-10.97,10.48-16.75,10.48h0c-5.79,0-7.67-4.69-4.2-10.48L216.46,10.48c3.47-5.79,1.58-10.48-4.2-10.48h-52.81c-5.79,0-13.29,4.69-16.75,10.48L44.86,173.83c-3.47,5.79-10.97,10.48-16.75,10.48h0c-5.79,0-7.67-4.69-4.2-10.48L121.75,10.48c3.47-5.79,1.58-10.48-4.2-10.48h-52.81c-5.79,0-13.29,4.69-16.75,10.48L11.21,71.87C3.16,85.31-.71,98.44,.11,109.6l6.43,88.47c.21,2.9,2.43,4.64,5.92,4.64H185.73c5.79,0,13.29-4.69,16.75-10.48L311.35,10.48c3.47-5.79,1.58-10.48-4.2-10.48Z"/>
      <g>
        <path class="cls-1" d="M838.71,79.78l-2.2,3.67c-.46,.77-.79,1.5-1.03,2.21l4.85-8.1c-.61,.71-1.16,1.45-1.62,2.21Z"/>
        <path class="cls-1" d="M945.29,60.74l30.15-50.33c3.44-5.75,1.57-10.4-4.17-10.4h-147.99c-5.75,0-13.19,4.66-16.64,10.4l-53.79,89.81c-3.44,5.75-1.57,10.4,4.17,10.4h74.08c5.75,0,7.61,4.66,4.17,10.4l-1.14,1.91-30.5,50.92c-3.44,5.75-10.89,10.4-16.64,10.4h-.15c-5.75,0-7.61-4.66-4.17-10.4l19.09-31.87c3.44-5.75,1.57-10.4-4.17-10.4h-53.12c-5.75,0-13.19,4.66-16.64,10.4l-30.13,50.3c-3.44,5.75-1.57,10.4,4.17,10.4h147.99c5.75,0,13.19-4.66,16.64-10.4l53.77-89.78c3.44-5.75,1.57-10.4-4.17-10.4h-76.12c-4.01,0-5.73-2.73-4.49-6.43,.24-.71,.57-1.45,1.03-2.21l2.2-3.67c.31-.51,.65-1.01,1.03-1.49s.74-.96,1.03-1.45l28.65-47.83c3.44-5.75,10.89-10.4,16.64-10.4h.15c5.75,0,7.61,4.66,4.17,10.4l-19.01,31.73c-3.44,5.75-1.57,10.4,4.17,10.4h53.11c5.75,0,13.19-4.66,16.64-10.4Z"/>
      </g>
      <path class="cls-1" d="M725.57,110.61h0l3.17-5.3c3.45-5.77,1.58-10.44-4.19-10.44h-52.94c-5.77,0-13.24,4.67-16.69,10.44l-41.06,68.55c-3.45,5.77-10.93,10.44-16.69,10.44h-.07c-5.77,0-7.64-4.67-4.19-10.44l47.31-78.99,12.55-20.95,26.88-44.88c3.45-5.77,10.93-10.44,16.69-10.44h.07c5.77,0,7.64,4.67,4.19,10.44l-20.63,34.44c-3.45,5.77-1.58,10.44,4.19,10.44h52.94c5.77,0,13.24-4.67,16.69-10.44l31.77-53.04C789.02,4.67,787.14,0,781.38,0h-147.56c-5.77,0-13.24,4.67-16.69,10.44l-108.9,181.83c-3.45,5.77-1.58,10.44,4.19,10.44h71.24c7.19,0,9.54,5.82,5.26,13.01l-.56,.94c-.38,.73-.78,1.46-1.24,2.21-3.12,5.12-5.54,10.87-7.26,17.27-1.16,4.35-1.68,7.93-1.56,10.75l6.06,86.37c.19,2.56,.95,3.84,2.26,3.84,2.49,0,5.72-3.33,9.69-9.98l129.27-216.5Z"/>
    </g>
  </g>
</svg>